<?xml version="1.0" encoding="utf-8" standalone="no"?>
<!DOCTYPE svg PUBLIC "-//W3C//DTD SVG 1.1//EN"
  "http://www.w3.org/Graphics/SVG/1.1/DTD/svg11.dtd">
<svg xmlns:xlink="http://www.w3.org/1999/xlink" width="460.8pt" height="234pt" viewBox="0 0 460.8 234" xmlns="http://www.w3.org/2000/svg" version="1.1">
 <metadata>
  <rdf:RDF xmlns:dc="http://purl.org/dc/elements/1.1/" xmlns:cc="http://creativecommons.org/ns#" xmlns:rdf="http://www.w3.org/1999/02/22-rdf-syntax-ns#">
   <cc:Work>
    <dc:type rdf:resource="http://purl.org/dc/dcmitype/StillImage"/>
    <dc:format>image/svg+xml</dc:format>
    <dc:creator>
     <cc:Agent>
      <dc:title>Matplotlib v3.9.2, https://matplotlib.org/</dc:title>
     </cc:Agent>
    </dc:creator>
   </cc:Work>
  </rdf:RDF>
 </metadata>
 <defs>
  <style type="text/css">*{stroke-linejoin: round; stroke-linecap: butt}</style>
 </defs>
 <g id="figure_1">
  <g id="patch_1">
   <path d="M 0 234 
L 460.8 234 
L 460.8 0 
L 0 0 
z
" style="fill: #ffffff"/>
  </g>
  <g id="axes_1">
   <g id="patch_2">
    <path d="M 136.796744 200.64351 
L 380.163604 200.64351 
L 380.163604 18.118365 
L 136.796744 18.118365 
z
" style="fill: #ffffff"/>
   </g>
   <g id="QuadContourSet_1">
    <path d="M 246.311831 18.118365 
L 249.353917 18.118365 
L 252.396003 18.118365 
L 255.438089 18.118365 
L 258.480174 18.118365 
L 261.52226 18.118365 
L 264.564346 18.118365 
L 267.606432 18.118365 
L 270.648517 18.118365 
L 273.690603 18.118365 
L 276.732689 18.118365 
L 279.774775 18.118365 
L 282.81686 18.118365 
L 285.858946 18.118365 
L 288.901032 18.118365 
L 291.943118 18.118365 
L 294.985203 18.118365 
L 298.027289 18.118365 
L 301.069375 18.118365 
L 304.111461 18.118365 
L 307.153546 18.118365 
L 310.195632 18.118365 
L 313.237718 18.118365 
L 316.279804 18.118365 
L 319.321889 18.118365 
L 322.363975 18.118365 
L 325.406061 18.118365 
L 328.448147 18.118365 
L 331.490232 18.118365 
L 334.532318 18.118365 
L 334.715381 18.118365 
L 334.724733 21.160451 
L 334.729627 24.202537 
L 334.700902 27.244622 
L 334.591538 30.286708 
L 334.532318 31.025492 
L 334.322407 33.328794 
L 333.790082 36.37088 
L 332.832862 39.412965 
L 331.490232 41.95007 
L 331.112954 42.455051 
L 328.448147 44.907131 
L 327.374427 45.497137 
L 325.406061 46.382005 
L 322.363975 47.186022 
L 319.321889 47.622253 
L 316.279804 47.838337 
L 313.237718 47.921386 
L 310.195632 47.92636 
L 307.153546 47.889995 
L 304.111461 47.837922 
L 301.069375 47.788654 
L 298.027289 47.755961 
L 294.985203 47.75024 
L 291.943118 47.779126 
L 288.901032 47.847533 
L 285.858946 47.957156 
L 282.81686 48.105427 
L 279.774775 48.283834 
L 276.732689 48.475557 
L 275.629553 48.539223 
L 273.690603 48.649845 
L 270.648517 48.767902 
L 267.606432 48.776481 
L 264.564346 48.606309 
L 264.084237 48.539223 
L 261.52226 48.17293 
L 258.480174 47.387212 
L 255.438089 46.128122 
L 254.384765 45.497137 
L 252.396003 44.176644 
L 250.558633 42.455051 
L 249.353917 41.050266 
L 248.278356 39.412965 
L 246.863882 36.37088 
L 246.311831 34.530999 
L 246.001077 33.328794 
L 245.520313 30.286708 
L 245.271036 27.244622 
L 245.157219 24.202537 
L 245.113231 21.160451 
L 245.100146 18.118365 
z
" clip-path="url(#p0ab45876d8)" style="fill: #030312"/>
    <path d="M 237.185574 18.118365 
L 240.22766 18.118365 
L 243.269746 18.118365 
L 245.100146 18.118365 
L 245.113231 21.160451 
L 245.157219 24.202537 
L 245.271036 27.244622 
L 245.520313 30.286708 
L 246.001077 33.328794 
L 246.311831 34.530999 
L 246.863882 36.37088 
L 248.278356 39.412965 
L 249.353917 41.050266 
L 250.558633 42.455051 
L 252.396003 44.176644 
L 254.384765 45.497137 
L 255.438089 46.128122 
L 258.480174 47.387212 
L 261.52226 48.17293 
L 264.084237 48.539223 
L 264.564346 48.606309 
L 267.606432 48.776481 
L 270.648517 48.767902 
L 273.690603 48.649845 
L 275.629553 48.539223 
L 276.732689 48.475557 
L 279.774775 48.283834 
L 282.81686 48.105427 
L 285.858946 47.957156 
L 288.901032 47.847533 
L 291.943118 47.779126 
L 294.985203 47.75024 
L 298.027289 47.755961 
L 301.069375 47.788654 
L 304.111461 47.837922 
L 307.153546 47.889995 
L 310.195632 47.92636 
L 313.237718 47.921386 
L 316.279804 47.838337 
L 319.321889 47.622253 
L 322.363975 47.186022 
L 325.406061 46.382005 
L 327.374427 45.497137 
L 328.448147 44.907131 
L 331.112954 42.455051 
L 331.490232 41.95007 
L 332.832862 39.412965 
L 333.790082 36.37088 
L 334.322407 33.328794 
L 334.532318 31.025492 
L 334.591538 30.286708 
L 334.700902 27.244622 
L 334.729627 24.202537 
L 334.724733 21.160451 
L 334.715381 18.118365 
L 337.574404 18.118365 
L 340.61649 18.118365 
L 343.658575 18.118365 
L 344.287754 18.118365 
L 344.389706 21.160451 
L 344.591913 24.202537 
L 344.891416 27.244622 
L 345.284781 30.286708 
L 345.768944 33.328794 
L 346.341494 36.37088 
L 346.700661 38.102305 
L 347.000565 39.412965 
L 347.725709 42.455051 
L 348.482486 45.497137 
L 349.220996 48.539223 
L 349.742747 51.048864 
L 349.858782 51.581308 
L 350.26774 54.623394 
L 350.408451 57.66548 
L 350.280669 60.707566 
L 349.950878 63.749651 
L 349.742747 65.251097 
L 349.457261 66.791737 
L 348.896446 69.833823 
L 348.473928 72.875909 
L 348.309453 75.917994 
L 348.500288 78.96008 
L 349.144783 82.002166 
L 349.742747 83.538904 
L 350.118919 85.044252 
L 351.221854 88.086337 
L 352.737196 91.128423 
L 352.784833 91.207532 
L 354.064934 94.170509 
L 355.56462 97.212595 
L 355.826918 97.729992 
L 356.840028 100.25468 
L 357.967539 103.296766 
L 358.869004 106.265996 
L 358.888099 106.338852 
L 359.385027 109.380938 
L 359.536799 112.423023 
L 359.333194 115.465109 
L 358.869004 118.183934 
L 358.796965 118.507195 
L 357.820794 121.549281 
L 356.675193 124.591366 
L 355.826918 126.848581 
L 355.289407 127.633452 
L 353.480422 130.675538 
L 352.784833 132.259122 
L 349.742747 132.95766 
L 347.960507 130.675538 
L 346.700661 129.483491 
L 345.612912 127.633452 
L 343.658575 124.620789 
L 343.642648 124.591366 
L 341.96902 121.549281 
L 340.61649 118.894578 
L 340.414275 118.507195 
L 338.991146 115.465109 
L 337.805195 112.423023 
L 337.574404 111.682113 
L 336.72127 109.380938 
L 335.913961 106.338852 
L 335.408408 103.296766 
L 335.175686 100.25468 
L 335.177089 97.212595 
L 335.357558 94.170509 
L 335.640637 91.128423 
L 335.927142 88.086337 
L 336.097451 85.044252 
L 336.01324 82.002166 
L 335.509368 78.96008 
L 334.532318 76.340056 
L 334.387039 75.917994 
L 332.647832 72.875909 
L 331.490232 71.588787 
L 329.84194 69.833823 
L 328.448147 68.800464 
L 325.406061 66.844877 
L 325.311347 66.791737 
L 322.363975 65.548003 
L 319.321889 64.502437 
L 316.699067 63.749651 
L 316.279804 63.653632 
L 313.237718 63.038542 
L 310.195632 62.50666 
L 307.153546 62.041115 
L 304.111461 61.636435 
L 301.069375 61.29596 
L 298.027289 61.028534 
L 294.985203 60.84504 
L 291.943118 60.755352 
L 288.901032 60.765978 
L 285.858946 60.878307 
L 282.81686 61.087147 
L 279.774775 61.379191 
L 276.732689 61.731294 
L 273.690603 62.108736 
L 270.648517 62.464079 
L 267.606432 62.737476 
L 264.564346 62.859239 
L 261.52226 62.754766 
L 258.480174 62.350873 
L 255.438089 61.581742 
L 253.166149 60.707566 
L 252.396003 60.419547 
L 249.353917 58.906624 
L 247.392487 57.66548 
L 246.311831 56.959763 
L 243.379676 54.623394 
L 243.269746 54.525888 
L 240.463647 51.581308 
L 240.22766 51.270257 
L 238.433392 48.539223 
L 237.185574 45.586464 
L 237.151921 45.497137 
L 236.390779 42.455051 
L 236.0166 39.412965 
L 235.890487 36.37088 
L 235.914367 33.328794 
L 236.019146 30.286708 
L 236.155285 27.244622 
L 236.286717 24.202537 
L 236.387905 21.160451 
L 236.442485 18.118365 
z
M 310.195632 107.56932 
L 313.237718 108.573782 
L 313.858133 109.380938 
L 314.996362 112.423023 
L 315.327101 115.465109 
L 315.278078 118.507195 
L 315.120416 121.549281 
L 315.044861 124.591366 
L 315.174362 127.633452 
L 315.558788 130.675538 
L 316.176508 133.717624 
L 316.279804 134.084986 
L 316.845899 136.759709 
L 317.573989 139.801795 
L 318.300707 142.843881 
L 318.95637 145.885966 
L 319.321889 147.9299 
L 319.49841 148.928052 
L 319.897715 151.970138 
L 320.091289 155.012224 
L 320.038026 158.05431 
L 319.68947 161.096395 
L 319.321889 162.700156 
L 319.019303 164.138481 
L 317.992185 167.180567 
L 316.456548 170.222653 
L 316.279804 170.49351 
L 314.156482 173.264738 
L 313.237718 174.207946 
L 310.195632 176.178219 
L 309.585981 176.306824 
L 307.153546 176.773957 
L 304.74789 176.306824 
L 304.111461 176.18582 
L 301.069375 174.547641 
L 299.479369 173.264738 
L 298.027289 171.941617 
L 296.434193 170.222653 
L 294.985203 168.245764 
L 294.197913 167.180567 
L 292.63227 164.138481 
L 291.943118 161.620746 
L 291.768464 161.096395 
L 291.602436 158.05431 
L 291.943118 156.357673 
L 292.166937 155.012224 
L 293.207109 151.970138 
L 294.656497 148.928052 
L 294.985203 148.324377 
L 296.250671 145.885966 
L 297.887173 142.843881 
L 298.027289 142.564841 
L 299.533324 139.801795 
L 300.970959 136.759709 
L 301.069375 136.497337 
L 302.39716 133.717624 
L 303.441353 130.675538 
L 304.111461 127.660419 
L 304.121426 127.633452 
L 304.748841 124.591366 
L 305.055257 121.549281 
L 305.247767 118.507195 
L 305.54333 115.465109 
L 306.158579 112.423023 
L 307.153546 109.73708 
L 307.521733 109.380938 
z
M 164.175516 141.953322 
L 167.217602 142.407738 
L 167.949375 142.843881 
L 170.259688 144.441267 
L 171.586377 145.885966 
L 173.301773 148.589022 
L 173.492562 148.928052 
L 174.442183 151.970138 
L 174.572804 155.012224 
L 174.036321 158.05431 
L 173.301773 160.070088 
L 172.974565 161.096395 
L 171.514756 164.138481 
L 170.259688 166.153659 
L 169.545548 167.180567 
L 167.217602 169.845088 
L 166.678277 170.222653 
L 164.175516 171.68389 
L 161.13343 171.822484 
L 158.091345 170.364031 
L 157.935541 170.222653 
L 155.117622 167.180567 
L 155.049259 167.078814 
L 153.523104 164.138481 
L 152.644862 161.096395 
L 152.479062 158.05431 
L 152.979817 155.012224 
L 154.060104 151.970138 
L 155.049259 149.990477 
L 155.713743 148.928052 
L 157.930949 145.885966 
L 158.091345 145.676962 
L 161.13343 143.06444 
L 161.764927 142.843881 
z
M 203.722631 142.249793 
L 206.764717 142.618378 
L 207.080511 142.843881 
L 209.806802 144.985014 
L 210.426947 145.885966 
L 212.305549 148.928052 
L 212.848888 149.951247 
L 213.663659 151.970138 
L 214.616736 155.012224 
L 215.190819 158.05431 
L 215.208579 161.096395 
L 214.363829 164.138481 
L 212.848888 166.329571 
L 211.318283 167.180567 
L 209.806802 167.707304 
L 206.764717 167.264349 
L 206.606796 167.180567 
L 203.722631 165.450189 
L 202.194717 164.138481 
L 200.680545 162.557771 
L 199.438502 161.096395 
L 197.638459 158.270428 
L 197.493918 158.05431 
L 196.26789 155.012224 
L 195.868171 151.970138 
L 196.420166 148.928052 
L 197.638459 146.616375 
L 198.134804 145.885966 
L 200.680545 143.501422 
L 202.159183 142.843881 
z
M 261.52226 145.878652 
L 261.543232 145.885966 
L 264.564346 146.990286 
L 266.818479 148.928052 
L 267.606432 149.77169 
L 269.132331 151.970138 
L 270.442139 155.012224 
L 270.648517 156.899461 
L 270.775007 158.054309 
L 270.648517 158.538273 
L 269.956765 161.096395 
L 267.768317 164.138481 
L 267.606432 164.2773 
L 264.564346 166.182221 
L 261.52226 166.904866 
L 258.480174 166.189716 
L 255.891324 164.138481 
L 255.438089 163.522705 
L 254.321728 161.096395 
L 253.826364 158.05431 
L 254.048583 155.012224 
L 254.853143 151.970138 
L 255.438089 150.571035 
L 256.537399 148.928052 
L 258.480174 146.764569 
L 261.493344 145.885966 
z
M 349.742747 144.208808 
L 352.784833 142.967803 
L 355.675262 145.885966 
L 355.826918 145.982476 
L 357.739313 148.928052 
L 358.869004 150.350513 
L 359.70873 151.970138 
L 361.266137 155.012224 
L 361.91109 156.558465 
L 362.403523 158.05431 
L 362.955988 161.096395 
L 362.91861 164.138481 
L 362.264501 167.180567 
L 361.91109 168.04812 
L 360.916138 170.222653 
L 359.077067 173.264738 
L 358.869004 173.559243 
L 356.374176 176.306824 
L 355.826918 176.906372 
L 352.784833 178.883631 
L 349.742747 179.064786 
L 346.700661 176.408694 
L 346.639477 176.306824 
L 345.270612 173.264738 
L 344.431153 170.222653 
L 344.002293 167.180567 
L 343.909944 164.138481 
L 344.112604 161.096395 
L 344.587482 158.05431 
L 345.313798 155.012224 
L 346.253234 151.970138 
L 346.700661 150.62327 
L 347.508679 148.928052 
L 349.014652 145.885966 
z
" clip-path="url(#p0ab45876d8)" style="fill: #130d34"/>
    <path d="M 228.059317 18.118365 
L 231.101403 18.118365 
L 234.143488 18.118365 
L 236.442485 18.118365 
L 236.387905 21.160451 
L 236.286717 24.202537 
L 236.155285 27.244622 
L 236.019146 30.286708 
L 235.914367 33.328794 
L 235.890487 36.37088 
L 236.0166 39.412965 
L 236.390779 42.455051 
L 237.151921 45.497137 
L 237.185574 45.586464 
L 238.433392 48.539223 
L 240.22766 51.270257 
L 240.463647 51.581308 
L 243.269746 54.525888 
L 243.379676 54.623394 
L 246.311831 56.959763 
L 247.392487 57.66548 
L 249.353917 58.906624 
L 252.396003 60.419547 
L 253.166149 60.707566 
L 255.438089 61.581742 
L 258.480174 62.350873 
L 261.52226 62.754766 
L 264.564346 62.859239 
L 267.606432 62.737476 
L 270.648517 62.464079 
L 273.690603 62.108736 
L 276.732689 61.731294 
L 279.774775 61.379191 
L 282.81686 61.087147 
L 285.858946 60.878307 
L 288.901032 60.765978 
L 291.943118 60.755352 
L 294.985203 60.84504 
L 298.027289 61.028534 
L 301.069375 61.29596 
L 304.111461 61.636435 
L 307.153546 62.041115 
L 310.195632 62.50666 
L 313.237718 63.038542 
L 316.279804 63.653632 
L 316.699067 63.749651 
L 319.321889 64.502437 
L 322.363975 65.548003 
L 325.311347 66.791737 
L 325.406061 66.844877 
L 328.448147 68.800464 
L 329.84194 69.833823 
L 331.490232 71.588787 
L 332.647832 72.875909 
L 334.387039 75.917994 
L 334.532318 76.340056 
L 335.509368 78.96008 
L 336.01324 82.002166 
L 336.097451 85.044252 
L 335.927142 88.086337 
L 335.640637 91.128423 
L 335.357558 94.170509 
L 335.177089 97.212595 
L 335.175686 100.25468 
L 335.408408 103.296766 
L 335.913961 106.338852 
L 336.72127 109.380938 
L 337.574404 111.682113 
L 337.805195 112.423023 
L 338.991146 115.465109 
L 340.414275 118.507195 
L 340.61649 118.894578 
L 341.96902 121.549281 
L 343.642648 124.591366 
L 343.658575 124.620789 
L 345.612912 127.633452 
L 346.700661 129.483491 
L 347.960507 130.675538 
L 349.742747 132.95766 
L 352.784833 132.259122 
L 353.480422 130.675538 
L 355.289407 127.633452 
L 355.826918 126.848581 
L 356.675193 124.591366 
L 357.820794 121.549281 
L 358.796965 118.507195 
L 358.869004 118.183934 
L 359.333194 115.465109 
L 359.536799 112.423023 
L 359.385027 109.380938 
L 358.888099 106.338852 
L 358.869004 106.265996 
L 357.967539 103.296766 
L 356.840028 100.25468 
L 355.826918 97.729992 
L 355.56462 97.212595 
L 354.064934 94.170509 
L 352.784833 91.207532 
L 352.737196 91.128423 
L 351.221854 88.086337 
L 350.118919 85.044252 
L 349.742747 83.538904 
L 349.144783 82.002166 
L 348.500288 78.96008 
L 348.309453 75.917994 
L 348.473928 72.875909 
L 348.896446 69.833823 
L 349.457261 66.791737 
L 349.742747 65.251097 
L 349.950878 63.749651 
L 350.280669 60.707566 
L 350.408451 57.66548 
L 350.26774 54.623394 
L 349.858782 51.581308 
L 349.742747 51.048864 
L 349.220996 48.539223 
L 348.482486 45.497137 
L 347.725709 42.455051 
L 347.000565 39.412965 
L 346.700661 38.102305 
L 346.341494 36.37088 
L 345.768944 33.328794 
L 345.284781 30.286708 
L 344.891416 27.244622 
L 344.591913 24.202537 
L 344.389706 21.160451 
L 344.287754 18.118365 
L 346.700661 18.118365 
L 349.742747 18.118365 
L 352.784833 18.118365 
L 354.128351 18.118365 
L 354.360483 21.160451 
L 354.828392 24.202537 
L 355.538994 27.244622 
L 355.826918 28.18197 
L 356.552377 30.286708 
L 357.860979 33.328794 
L 358.869004 35.314881 
L 359.487523 36.37088 
L 361.448079 39.412965 
L 361.91109 40.110536 
L 363.728852 42.455051 
L 364.953176 44.11673 
L 366.158176 45.497137 
L 367.995261 48.00258 
L 368.472276 48.539223 
L 370.365287 51.581308 
L 371.037347 53.724427 
L 371.388104 54.623394 
L 371.440822 57.66548 
L 371.037347 59.106609 
L 370.699867 60.707566 
L 369.627901 63.749651 
L 368.410842 66.791737 
L 367.995261 67.857978 
L 367.362889 69.833823 
L 366.557708 72.875909 
L 366.016917 75.917994 
L 365.780727 78.96008 
L 365.860751 82.002166 
L 366.246196 85.044252 
L 366.9067 88.086337 
L 367.793108 91.128423 
L 367.995261 91.710482 
L 368.957822 94.170509 
L 370.229673 97.212595 
L 371.037347 99.185007 
L 371.575821 100.25468 
L 372.939592 103.296766 
L 374.000827 106.338852 
L 374.079433 106.691727 
L 374.927673 109.380938 
L 375.274629 112.423023 
L 375.027328 115.465109 
L 374.27695 118.507195 
L 374.079433 119.05217 
L 373.44224 121.549281 
L 372.550166 124.591366 
L 371.687525 127.633452 
L 371.037347 130.487823 
L 371.002254 130.675538 
L 370.670696 133.717624 
L 370.646229 136.759709 
L 370.965148 139.801795 
L 371.037347 140.135445 
L 371.744263 142.843881 
L 372.874983 145.885966 
L 374.079433 148.627529 
L 374.262393 148.928052 
L 376.16469 151.970138 
L 377.121519 153.7515 
L 378.396242 155.012224 
L 380.163604 157.718257 
L 380.163604 158.05431 
L 380.163604 161.096395 
L 380.163604 162.14791 
L 379.126828 164.138481 
L 377.121519 165.797816 
L 376.277539 167.180567 
L 374.079433 169.505263 
L 373.610398 170.222653 
L 371.037347 173.249177 
L 371.026745 173.264738 
L 368.607853 176.306824 
L 367.995261 177.026264 
L 366.250039 179.34891 
L 364.953176 181.081514 
L 364.015524 182.390996 
L 361.989779 185.433081 
L 361.91109 185.566209 
L 360.140941 188.475167 
L 358.869004 191.055325 
L 358.611205 191.517253 
L 357.325136 194.559338 
L 356.484777 197.601424 
L 356.069746 200.64351 
L 355.826918 200.64351 
L 352.784833 200.64351 
L 349.742747 200.64351 
L 346.700661 200.64351 
L 343.658575 200.64351 
L 340.61649 200.64351 
L 337.574404 200.64351 
L 334.532318 200.64351 
L 331.793261 200.64351 
L 331.490232 199.031605 
L 331.014197 197.601424 
L 328.911154 194.559338 
L 328.448147 194.122794 
L 325.406061 193.872279 
L 324.152083 194.559338 
L 322.363975 195.807406 
L 320.744312 197.601424 
L 319.321889 200.316064 
L 319.161334 200.64351 
L 316.279804 200.64351 
L 313.237718 200.64351 
L 310.195632 200.64351 
L 307.153546 200.64351 
L 304.76641 200.64351 
L 304.111461 199.257856 
L 303.593884 197.601424 
L 301.696841 194.559338 
L 301.069375 193.880348 
L 299.33403 191.517253 
L 298.027289 190.129558 
L 296.620141 188.475167 
L 294.985203 186.833659 
L 293.581602 185.433081 
L 291.943118 183.944512 
L 290.020538 182.390996 
L 288.901032 181.525962 
L 285.858946 179.716602 
L 284.848563 179.34891 
L 282.81686 178.621694 
L 279.774775 178.286959 
L 276.732689 178.624152 
L 274.035547 179.34891 
L 273.690603 179.440405 
L 270.648517 180.506964 
L 267.606432 181.547936 
L 264.564346 182.335439 
L 264.10397 182.390996 
L 261.52226 182.724172 
L 258.480174 182.545088 
L 257.881284 182.390996 
L 255.438089 181.789597 
L 252.396003 180.481104 
L 250.418805 179.34891 
L 249.353917 178.706724 
L 246.311831 176.630849 
L 245.817303 176.306824 
L 243.269746 174.373718 
L 241.509492 173.264738 
L 240.22766 172.236059 
L 237.185574 170.734359 
L 234.143488 170.560076 
L 231.101403 171.971888 
L 229.720906 173.264738 
L 228.059317 174.496871 
L 226.207264 176.306824 
L 225.017231 177.291173 
L 222.672058 179.34891 
L 221.975145 179.902559 
L 218.93306 182.050945 
L 218.259373 182.390996 
L 215.890974 183.569124 
L 212.848888 184.261797 
L 209.806802 184.081527 
L 206.764717 183.086535 
L 205.493785 182.390996 
L 203.722631 181.481548 
L 200.680545 179.487217 
L 200.481925 179.34891 
L 197.638459 177.39296 
L 195.950528 176.306824 
L 194.596374 175.41519 
L 191.554288 173.844635 
L 189.570598 173.264738 
L 188.512202 172.937758 
L 185.470116 172.940992 
L 184.534891 173.264738 
L 182.428031 174.0061 
L 179.385945 176.123553 
L 179.196523 176.306824 
L 176.343859 179.099707 
L 176.11863 179.34891 
L 173.420996 182.390996 
L 173.301773 182.533082 
L 170.628787 185.433081 
L 170.259688 185.863314 
L 167.217602 188.305167 
L 166.591533 188.475167 
L 164.175516 189.207888 
L 162.075639 188.475167 
L 161.13343 188.215107 
L 158.091345 185.937177 
L 157.637279 185.433081 
L 155.049259 182.945377 
L 154.56835 182.390996 
L 152.007173 179.664894 
L 151.723852 179.34891 
L 148.965087 176.3352 
L 148.937365 176.306824 
L 146.074471 173.264738 
L 145.923002 173.08664 
L 143.002002 170.222653 
L 142.880916 170.080568 
L 139.83883 167.544512 
L 138.99459 167.180567 
L 136.796744 165.9233 
L 136.796744 164.138481 
L 136.796744 161.096395 
L 136.796744 158.05431 
L 136.796744 155.012224 
L 136.796744 151.970138 
L 136.796744 148.928052 
L 136.796744 147.097118 
L 138.524906 145.885966 
L 139.83883 145.030344 
L 141.644505 142.843881 
L 142.880916 141.355221 
L 143.832944 139.801795 
L 145.607177 136.759709 
L 145.923002 136.153426 
L 147.013929 133.717624 
L 148.199339 130.675538 
L 148.965087 128.32484 
L 149.181994 127.633452 
L 149.948107 124.591366 
L 150.568449 121.549281 
L 151.076729 118.507195 
L 151.511557 115.465109 
L 151.908432 112.423023 
L 152.007173 111.644871 
L 152.30906 109.380938 
L 152.709739 106.338852 
L 153.098262 103.296766 
L 153.457813 100.25468 
L 153.767273 97.212595 
L 154.007382 94.170509 
L 154.165668 91.128423 
L 154.240188 88.086337 
L 154.242726 85.044252 
L 154.202102 82.002166 
L 154.16784 78.96008 
L 154.21364 75.917994 
L 154.438744 72.875909 
L 154.963556 69.833823 
L 155.049259 69.55609 
L 155.932924 66.791737 
L 157.422057 63.749651 
L 158.091345 62.753933 
L 159.548312 60.707566 
L 161.13343 58.89462 
L 162.299545 57.66548 
L 164.175516 55.910898 
L 165.693685 54.623394 
L 167.217602 53.398016 
L 169.753494 51.581308 
L 170.259688 51.220108 
L 173.301773 49.422837 
L 175.197202 48.539223 
L 176.343859 47.994362 
L 179.385945 47.048658 
L 182.428031 46.582826 
L 185.470116 46.56315 
L 188.512202 46.871634 
L 191.554288 47.346603 
L 194.596374 47.835825 
L 197.638459 48.227663 
L 200.680545 48.451532 
L 203.722631 48.459379 
L 206.764717 48.200382 
L 209.806802 47.591383 
L 212.848888 46.473286 
L 214.468925 45.497137 
L 215.890974 44.669603 
L 218.339737 42.455051 
L 218.93306 41.894969 
L 220.786629 39.412965 
L 221.975145 37.624457 
L 222.60493 36.37088 
L 223.957526 33.328794 
L 225.017231 30.416019 
L 225.05562 30.286708 
L 225.816243 27.244622 
L 226.382824 24.202537 
L 226.759149 21.160451 
L 226.946979 18.118365 
z
M 191.847546 78.96008 
L 191.554288 79.107186 
L 188.512202 81.314021 
L 187.795084 82.002166 
L 185.470116 84.370656 
L 184.931715 85.044252 
L 182.734635 88.086337 
L 182.428031 88.571026 
L 181.016804 91.128423 
L 179.627032 94.170509 
L 179.385945 94.837125 
L 178.581323 97.212595 
L 177.848762 100.25468 
L 177.41478 103.296766 
L 177.293361 106.338852 
L 177.516782 109.380938 
L 178.138004 112.423023 
L 179.231898 115.465109 
L 179.385945 115.764762 
L 181.280765 118.507195 
L 182.428031 119.716448 
L 185.470116 121.425347 
L 186.745338 121.549281 
L 188.512202 121.690386 
L 189.076402 121.549281 
L 191.554288 120.909741 
L 194.596374 119.35577 
L 195.823676 118.507195 
L 197.638459 117.162858 
L 199.594799 115.465109 
L 200.680545 114.429714 
L 202.62986 112.423023 
L 203.722631 111.164303 
L 205.253253 109.380938 
L 206.764717 107.395563 
L 207.607708 106.338852 
L 209.769061 103.296766 
L 209.806802 103.236782 
L 211.905806 100.25468 
L 212.848888 98.755415 
L 214.003268 97.212595 
L 215.890974 94.375221 
L 216.062129 94.170509 
L 218.178189 91.128423 
L 218.93306 89.716582 
L 220.098924 88.086337 
L 221.384125 85.044252 
L 221.185279 82.002166 
L 218.93306 79.814366 
L 217.711838 78.96008 
L 215.890974 78.295078 
L 212.848888 77.395532 
L 209.806802 76.722408 
L 206.764717 76.269188 
L 203.722631 76.066613 
L 200.680545 76.169055 
L 197.638459 76.64787 
L 194.596374 77.590568 
z
M 274.946163 91.128423 
L 273.690603 92.140999 
L 272.6909 94.170509 
L 272.143991 97.212595 
L 272.281537 100.25468 
L 272.827138 103.296766 
L 273.558092 106.338852 
L 273.690603 106.807958 
L 275.61097 109.380938 
L 276.732689 111.198038 
L 277.593811 109.380938 
L 278.551581 106.338852 
L 279.346141 103.296766 
L 279.774775 101.539436 
L 279.908366 100.25468 
L 280.160423 97.212595 
L 280.179074 94.170509 
L 279.774775 92.112618 
L 278.971228 91.128423 
L 276.732689 90.236651 
z
M 307.521733 109.380938 
L 307.153546 109.73708 
L 306.158579 112.423023 
L 305.54333 115.465109 
L 305.247767 118.507195 
L 305.055257 121.549281 
L 304.748841 124.591366 
L 304.121426 127.633452 
L 304.111461 127.660419 
L 303.441353 130.675538 
L 302.39716 133.717624 
L 301.069375 136.497337 
L 300.970959 136.759709 
L 299.533324 139.801795 
L 298.027289 142.564841 
L 297.887173 142.843881 
L 296.250671 145.885966 
L 294.985203 148.324377 
L 294.656497 148.928052 
L 293.207109 151.970138 
L 292.166937 155.012224 
L 291.943118 156.357673 
L 291.602436 158.05431 
L 291.768464 161.096395 
L 291.943118 161.620746 
L 292.63227 164.138481 
L 294.197913 167.180567 
L 294.985203 168.245764 
L 296.434193 170.222653 
L 298.027289 171.941617 
L 299.479369 173.264738 
L 301.069375 174.547641 
L 304.111461 176.18582 
L 304.74789 176.306824 
L 307.153546 176.773957 
L 309.585981 176.306824 
L 310.195632 176.178219 
L 313.237718 174.207946 
L 314.156482 173.264738 
L 316.279804 170.49351 
L 316.456548 170.222653 
L 317.992185 167.180567 
L 319.019303 164.138481 
L 319.321889 162.700156 
L 319.68947 161.096395 
L 320.038026 158.05431 
L 320.091289 155.012224 
L 319.897715 151.970138 
L 319.49841 148.928052 
L 319.321889 147.9299 
L 318.95637 145.885966 
L 318.300707 142.843881 
L 317.573989 139.801795 
L 316.845899 136.759709 
L 316.279804 134.084986 
L 316.176508 133.717624 
L 315.558788 130.675538 
L 315.174362 127.633452 
L 315.044861 124.591366 
L 315.120416 121.549281 
L 315.278078 118.507195 
L 315.327101 115.465109 
L 314.996362 112.423023 
L 313.858133 109.380938 
L 313.237718 108.573782 
L 310.195632 107.56932 
z
M 232.671879 130.675538 
L 231.101403 131.127175 
L 229.464789 133.717624 
L 228.676367 136.759709 
L 228.814457 139.801795 
L 229.66146 142.843881 
L 230.99463 145.885966 
L 231.101403 146.079101 
L 234.143488 147.587388 
L 235.866028 145.885966 
L 237.185574 144.118342 
L 237.595443 142.843881 
L 238.156787 139.801795 
L 238.187383 136.759709 
L 237.538981 133.717624 
L 237.185574 132.941868 
L 234.639137 130.675538 
L 234.143488 130.376547 
z
M 161.764927 142.843881 
L 161.13343 143.06444 
L 158.091345 145.676962 
L 157.930949 145.885966 
L 155.713743 148.928052 
L 155.049259 149.990477 
L 154.060104 151.970138 
L 152.979817 155.012224 
L 152.479062 158.054309 
L 152.644862 161.096395 
L 153.523104 164.138481 
L 155.049259 167.078814 
L 155.117622 167.180567 
L 157.935541 170.222653 
L 158.091345 170.364031 
L 161.13343 171.822484 
L 164.175516 171.68389 
L 166.678277 170.222653 
L 167.217602 169.845088 
L 169.545548 167.180567 
L 170.259688 166.153659 
L 171.514756 164.138481 
L 172.974565 161.096395 
L 173.301773 160.070088 
L 174.036321 158.05431 
L 174.572804 155.012224 
L 174.442183 151.970138 
L 173.492562 148.928052 
L 173.301773 148.589022 
L 171.586377 145.885966 
L 170.259688 144.441267 
L 167.949375 142.843881 
L 167.217602 142.407738 
L 164.175516 141.953322 
z
M 202.159183 142.843881 
L 200.680545 143.501422 
L 198.134804 145.885966 
L 197.638459 146.616375 
L 196.420166 148.928052 
L 195.868171 151.970138 
L 196.26789 155.012224 
L 197.493918 158.05431 
L 197.638459 158.270428 
L 199.438502 161.096395 
L 200.680545 162.557771 
L 202.194717 164.138481 
L 203.722631 165.450189 
L 206.606796 167.180567 
L 206.764717 167.264349 
L 209.806802 167.707304 
L 211.318283 167.180567 
L 212.848888 166.329571 
L 214.363829 164.138481 
L 215.208579 161.096395 
L 215.190819 158.05431 
L 214.616736 155.012224 
L 213.663659 151.970138 
L 212.848888 149.951247 
L 212.305549 148.928052 
L 210.426947 145.885966 
L 209.806802 144.985014 
L 207.080511 142.843881 
L 206.764717 142.618378 
L 203.722631 142.249793 
z
M 261.493344 145.885966 
L 258.480174 146.764569 
L 256.537399 148.928052 
L 255.438089 150.571035 
L 254.853143 151.970138 
L 254.048583 155.012224 
L 253.826364 158.05431 
L 254.321728 161.096395 
L 255.438089 163.522705 
L 255.891324 164.138481 
L 258.480174 166.189716 
L 261.52226 166.904866 
L 264.564346 166.182221 
L 267.606432 164.2773 
L 267.768317 164.138481 
L 269.956765 161.096395 
L 270.648517 158.538273 
L 270.775007 158.05431 
L 270.648517 156.899461 
L 270.442139 155.012224 
L 269.132331 151.970138 
L 267.606432 149.77169 
L 266.818479 148.928052 
L 264.564346 146.990286 
L 261.543232 145.885966 
L 261.52226 145.878652 
z
M 349.014652 145.885966 
L 347.508679 148.928052 
L 346.700661 150.62327 
L 346.253234 151.970138 
L 345.313798 155.012224 
L 344.587482 158.05431 
L 344.112604 161.096395 
L 343.909944 164.138481 
L 344.002293 167.180567 
L 344.431153 170.222653 
L 345.270612 173.264738 
L 346.639477 176.306824 
L 346.700661 176.408694 
L 349.742747 179.064786 
L 352.784833 178.883631 
L 355.826918 176.906372 
L 356.374176 176.306824 
L 358.869004 173.559243 
L 359.077067 173.264738 
L 360.916138 170.222653 
L 361.91109 168.04812 
L 362.264501 167.180567 
L 362.91861 164.138481 
L 362.955988 161.096395 
L 362.403523 158.05431 
L 361.91109 156.558465 
L 361.266137 155.012224 
L 359.70873 151.970138 
L 358.869004 150.350513 
L 357.739313 148.928052 
L 355.826918 145.982476 
L 355.675262 145.885967 
L 352.784833 142.967803 
L 349.742747 144.208808 
z
" clip-path="url(#p0ab45876d8)" style="fill: #29115a"/>
    <path d="M 176.343859 18.854671 
L 176.550713 18.118365 
L 179.385945 18.118365 
L 182.428031 18.118365 
L 185.470116 18.118365 
L 188.512202 18.118365 
L 191.554288 18.118365 
L 194.596374 18.118365 
L 195.940775 18.118365 
L 197.638459 20.842828 
L 197.932347 21.160451 
L 200.680545 22.630864 
L 203.722631 23.064173 
L 206.764717 22.035767 
L 207.727783 21.160451 
L 209.413007 18.118365 
L 209.806802 18.118365 
L 212.848888 18.118365 
L 215.890974 18.118365 
L 218.93306 18.118365 
L 221.975145 18.118365 
L 225.017231 18.118365 
L 226.946979 18.118365 
L 226.759149 21.160451 
L 226.382824 24.202537 
L 225.816243 27.244622 
L 225.05562 30.286708 
L 225.017231 30.416019 
L 223.957526 33.328794 
L 222.60493 36.37088 
L 221.975145 37.624457 
L 220.786629 39.412965 
L 218.93306 41.894969 
L 218.339737 42.455051 
L 215.890974 44.669603 
L 214.468925 45.497137 
L 212.848888 46.473286 
L 209.806802 47.591383 
L 206.764717 48.200382 
L 203.722631 48.459379 
L 200.680545 48.451532 
L 197.638459 48.227663 
L 194.596374 47.835825 
L 191.554288 47.346603 
L 188.512202 46.871634 
L 185.470116 46.56315 
L 182.428031 46.582826 
L 179.385945 47.048658 
L 176.343859 47.994362 
L 175.197202 48.539223 
L 173.301773 49.422837 
L 170.259688 51.220108 
L 169.753494 51.581308 
L 167.217602 53.398016 
L 165.693685 54.623394 
L 164.175516 55.910898 
L 162.299545 57.66548 
L 161.13343 58.89462 
L 159.548312 60.707566 
L 158.091345 62.753933 
L 157.422057 63.749651 
L 155.932924 66.791737 
L 155.049259 69.55609 
L 154.963556 69.833823 
L 154.438744 72.875909 
L 154.21364 75.917994 
L 154.16784 78.96008 
L 154.202102 82.002166 
L 154.242726 85.044252 
L 154.240188 88.086337 
L 154.165668 91.128423 
L 154.007382 94.170509 
L 153.767273 97.212595 
L 153.457813 100.25468 
L 153.098262 103.296766 
L 152.709739 106.338852 
L 152.30906 109.380938 
L 152.007173 111.644871 
L 151.908432 112.423023 
L 151.511557 115.465109 
L 151.076729 118.507195 
L 150.568449 121.549281 
L 149.948107 124.591366 
L 149.181994 127.633452 
L 148.965087 128.32484 
L 148.199339 130.675538 
L 147.013929 133.717624 
L 145.923002 136.153426 
L 145.607177 136.759709 
L 143.832944 139.801795 
L 142.880916 141.355221 
L 141.644505 142.843881 
L 139.83883 145.030344 
L 138.524906 145.885966 
L 136.796744 147.097118 
L 136.796744 145.885966 
L 136.796744 142.843881 
L 136.796744 139.801795 
L 136.796744 136.759709 
L 136.796744 133.717624 
L 136.796744 130.675538 
L 136.796744 127.633452 
L 136.796744 124.591366 
L 136.796744 121.549281 
L 136.796744 118.507195 
L 136.796744 115.465109 
L 136.796744 112.423023 
L 136.796744 109.380938 
L 136.796744 106.338852 
L 136.796744 103.296766 
L 136.796744 100.25468 
L 136.796744 97.212595 
L 136.796744 94.170509 
L 136.796744 91.128423 
L 136.796744 88.086337 
L 136.796744 85.044252 
L 136.796744 82.002166 
L 136.796744 78.96008 
L 136.796744 75.917994 
L 136.796744 72.875909 
L 136.796744 69.833823 
L 136.796744 66.791737 
L 136.796744 63.749651 
L 136.796744 60.707566 
L 136.796744 58.067304 
L 138.282629 57.66548 
L 139.83883 57.333768 
L 142.880916 56.067376 
L 145.284341 54.623394 
L 145.923002 54.296185 
L 148.965087 52.309706 
L 149.911644 51.581308 
L 152.007173 50.097143 
L 153.951861 48.539223 
L 155.049259 47.681811 
L 157.607148 45.497137 
L 158.091345 45.072439 
L 160.911549 42.455051 
L 161.13343 42.233399 
L 163.899241 39.412965 
L 164.175516 39.096123 
L 166.605587 36.37088 
L 167.217602 35.565732 
L 169.05277 33.328794 
L 170.259688 31.528053 
L 171.223144 30.286708 
L 173.073471 27.244622 
L 173.301773 26.736745 
L 174.770269 24.202537 
L 175.916279 21.160451 
z
M 355.826918 18.118365 
L 358.869004 18.118365 
L 361.91109 18.118365 
L 364.953176 18.118365 
L 367.067081 18.118365 
L 367.603175 21.160451 
L 367.995261 22.280845 
L 368.833645 24.202537 
L 370.819468 27.244622 
L 371.037347 27.502613 
L 374.079433 30.16729 
L 374.287322 30.286708 
L 377.121519 31.675807 
L 380.163604 32.408975 
L 380.163604 33.328794 
L 380.163604 36.37088 
L 380.163604 39.412965 
L 380.163604 42.455051 
L 380.163604 45.497137 
L 380.163604 48.539223 
L 380.163604 51.581308 
L 380.163604 54.623394 
L 380.163604 57.66548 
L 380.163604 60.707566 
L 380.163604 63.749651 
L 380.163604 66.791737 
L 380.163604 69.833823 
L 380.163604 72.875909 
L 380.163604 75.917994 
L 380.163604 78.96008 
L 380.163604 82.002166 
L 380.163604 85.044252 
L 380.163604 88.086337 
L 380.163604 91.128423 
L 380.163604 94.170509 
L 380.163604 97.212595 
L 380.163604 100.25468 
L 380.163604 103.296766 
L 380.163604 106.338852 
L 380.163604 109.380938 
L 380.163604 112.423023 
L 380.163604 115.465109 
L 380.163604 118.507195 
L 380.163604 121.549281 
L 380.163604 124.591366 
L 380.163604 127.633452 
L 380.163604 130.675538 
L 380.163604 133.717624 
L 380.163604 136.759709 
L 380.163604 139.801795 
L 380.163604 142.843881 
L 380.163604 145.885966 
L 380.163604 148.928052 
L 380.163604 151.970138 
L 380.163604 155.012224 
L 380.163604 157.718257 
L 378.396242 155.012224 
L 377.121519 153.7515 
L 376.16469 151.970138 
L 374.262393 148.928052 
L 374.079433 148.627529 
L 372.874983 145.885966 
L 371.744263 142.843881 
L 371.037347 140.135445 
L 370.965148 139.801795 
L 370.646229 136.759709 
L 370.670696 133.717624 
L 371.002254 130.675538 
L 371.037347 130.487823 
L 371.687525 127.633452 
L 372.550166 124.591366 
L 373.44224 121.549281 
L 374.079433 119.05217 
L 374.27695 118.507195 
L 375.027328 115.465109 
L 375.274629 112.423023 
L 374.927673 109.380938 
L 374.079433 106.691727 
L 374.000827 106.338852 
L 372.939592 103.296766 
L 371.575821 100.25468 
L 371.037347 99.185007 
L 370.229673 97.212595 
L 368.957822 94.170509 
L 367.995261 91.710482 
L 367.793108 91.128423 
L 366.9067 88.086337 
L 366.246196 85.044252 
L 365.860751 82.002166 
L 365.780727 78.96008 
L 366.016917 75.917994 
L 366.557708 72.875909 
L 367.362889 69.833823 
L 367.995261 67.857978 
L 368.410842 66.791737 
L 369.627901 63.749651 
L 370.699867 60.707566 
L 371.037347 59.106609 
L 371.440822 57.66548 
L 371.388104 54.623394 
L 371.037347 53.724427 
L 370.365287 51.581308 
L 368.472276 48.539223 
L 367.995261 48.00258 
L 366.158176 45.497137 
L 364.953176 44.11673 
L 363.728852 42.455051 
L 361.91109 40.110536 
L 361.448079 39.412965 
L 359.487523 36.37088 
L 358.869004 35.314881 
L 357.860979 33.328794 
L 356.552377 30.286708 
L 355.826918 28.18197 
L 355.538994 27.244622 
L 354.828392 24.202537 
L 354.360483 21.160451 
L 354.128351 18.118365 
z
M 194.596374 77.590568 
L 197.638459 76.64787 
L 200.680545 76.169055 
L 203.722631 76.066613 
L 206.764717 76.269188 
L 209.806802 76.722408 
L 212.848888 77.395532 
L 215.890974 78.295078 
L 217.711838 78.96008 
L 218.93306 79.814366 
L 221.185279 82.002166 
L 221.384125 85.044252 
L 220.098924 88.086337 
L 218.93306 89.716582 
L 218.178189 91.128423 
L 216.062129 94.170509 
L 215.890974 94.375221 
L 214.003268 97.212595 
L 212.848888 98.755415 
L 211.905806 100.25468 
L 209.806802 103.236782 
L 209.769061 103.296766 
L 207.607708 106.338852 
L 206.764717 107.395563 
L 205.253253 109.380938 
L 203.722631 111.164303 
L 202.62986 112.423023 
L 200.680545 114.429714 
L 199.594799 115.465109 
L 197.638459 117.162858 
L 195.823676 118.507195 
L 194.596374 119.35577 
L 191.554288 120.909741 
L 189.076402 121.549281 
L 188.512202 121.690386 
L 186.745338 121.549281 
L 185.470116 121.425347 
L 182.428031 119.716448 
L 181.280765 118.507195 
L 179.385945 115.764762 
L 179.231898 115.465109 
L 178.138004 112.423023 
L 177.516782 109.380938 
L 177.293361 106.338852 
L 177.41478 103.296766 
L 177.848762 100.25468 
L 178.581323 97.212595 
L 179.385945 94.837125 
L 179.627032 94.170509 
L 181.016804 91.128423 
L 182.428031 88.571026 
L 182.734635 88.086337 
L 184.931715 85.044252 
L 185.470116 84.370656 
L 187.795084 82.002166 
L 188.512202 81.314021 
L 191.554288 79.107186 
L 191.847546 78.96008 
z
M 276.732689 90.236651 
L 278.971228 91.128423 
L 279.774775 92.112618 
L 280.179074 94.170509 
L 280.160423 97.212595 
L 279.908366 100.25468 
L 279.774775 101.539436 
L 279.346141 103.296766 
L 278.551581 106.338852 
L 277.593811 109.380938 
L 276.732689 111.198038 
L 275.61097 109.380938 
L 273.690603 106.807958 
L 273.558092 106.338852 
L 272.827138 103.296766 
L 272.281537 100.25468 
L 272.143991 97.212595 
L 272.6909 94.170509 
L 273.690603 92.140999 
L 274.946163 91.128423 
z
M 234.143488 130.376547 
L 234.639137 130.675538 
L 237.185574 132.941868 
L 237.538981 133.717624 
L 238.187383 136.759709 
L 238.156787 139.801795 
L 237.595443 142.843881 
L 237.185574 144.118342 
L 235.866028 145.885966 
L 234.143488 147.587388 
L 231.101403 146.079101 
L 230.99463 145.885966 
L 229.66146 142.843881 
L 228.814457 139.801795 
L 228.676367 136.759709 
L 229.464789 133.717624 
L 231.101403 131.127175 
L 232.671879 130.675538 
z
M 380.163604 162.14791 
L 380.163604 164.138481 
L 380.163604 167.180567 
L 380.163604 170.222653 
L 380.163604 173.264738 
L 380.163604 176.306824 
L 380.163604 179.34891 
L 380.163604 181.660393 
L 377.964362 182.390996 
L 377.121519 182.682347 
L 374.079433 184.744327 
L 373.375153 185.433081 
L 371.037347 187.97157 
L 370.667654 188.475167 
L 368.781928 191.517253 
L 367.995261 193.1551 
L 367.405116 194.559338 
L 366.535048 197.601424 
L 366.096654 200.64351 
L 364.953176 200.64351 
L 361.91109 200.64351 
L 358.869004 200.64351 
L 356.069746 200.64351 
L 356.484777 197.601424 
L 357.325136 194.559338 
L 358.611205 191.517253 
L 358.869004 191.055325 
L 360.140941 188.475167 
L 361.91109 185.566209 
L 361.989779 185.433081 
L 364.015524 182.390996 
L 364.953176 181.081514 
L 366.250039 179.34891 
L 367.995261 177.026264 
L 368.607853 176.306824 
L 371.026745 173.264738 
L 371.037347 173.249177 
L 373.610398 170.222653 
L 374.079433 169.505263 
L 376.277539 167.180567 
L 377.121519 165.797816 
L 379.126828 164.138481 
z
M 138.99459 167.180567 
L 139.83883 167.544512 
L 142.880916 170.080568 
L 143.002002 170.222653 
L 145.923002 173.08664 
L 146.074471 173.264738 
L 148.937365 176.306824 
L 148.965087 176.3352 
L 151.723852 179.34891 
L 152.007173 179.664894 
L 154.56835 182.390996 
L 155.049259 182.945377 
L 157.637279 185.433081 
L 158.091345 185.937177 
L 161.13343 188.215107 
L 162.075639 188.475167 
L 164.175516 189.207888 
L 166.591533 188.475167 
L 167.217602 188.305167 
L 170.259688 185.863314 
L 170.628787 185.433081 
L 173.301773 182.533082 
L 173.420996 182.390996 
L 176.11863 179.34891 
L 176.343859 179.099707 
L 179.196523 176.306824 
L 179.385945 176.123553 
L 182.428031 174.0061 
L 184.534891 173.264738 
L 185.470116 172.940992 
L 188.512202 172.937758 
L 189.570598 173.264738 
L 191.554288 173.844635 
L 194.596374 175.41519 
L 195.950528 176.306824 
L 197.638459 177.39296 
L 200.481925 179.34891 
L 200.680545 179.487217 
L 203.722631 181.481548 
L 205.493785 182.390996 
L 206.764717 183.086535 
L 209.806802 184.081527 
L 212.848888 184.261797 
L 215.890974 183.569124 
L 218.259373 182.390996 
L 218.93306 182.050945 
L 221.975145 179.902559 
L 222.672058 179.34891 
L 225.017231 177.291173 
L 226.207264 176.306824 
L 228.059317 174.496871 
L 229.720906 173.264738 
L 231.101403 171.971888 
L 234.143488 170.560076 
L 237.185574 170.734359 
L 240.22766 172.236059 
L 241.509492 173.264738 
L 243.269746 174.373718 
L 245.817303 176.306824 
L 246.311831 176.630849 
L 249.353917 178.706724 
L 250.418805 179.34891 
L 252.396003 180.481104 
L 255.438089 181.789597 
L 257.881284 182.390996 
L 258.480174 182.545088 
L 261.52226 182.724172 
L 264.10397 182.390996 
L 264.564346 182.335439 
L 267.606432 181.547936 
L 270.648517 180.506964 
L 273.690603 179.440405 
L 274.035547 179.34891 
L 276.732689 178.624152 
L 279.774775 178.286959 
L 282.81686 178.621694 
L 284.848563 179.34891 
L 285.858946 179.716602 
L 288.901032 181.525962 
L 290.020538 182.390996 
L 291.943118 183.944512 
L 293.581602 185.433081 
L 294.985203 186.833659 
L 296.620141 188.475167 
L 298.027289 190.129558 
L 299.33403 191.517253 
L 301.069375 193.880348 
L 301.696841 194.559338 
L 303.593884 197.601424 
L 304.111461 199.257856 
L 304.76641 200.64351 
L 304.111461 200.64351 
L 301.069375 200.64351 
L 298.027289 200.64351 
L 294.985203 200.64351 
L 291.943118 200.64351 
L 288.901032 200.64351 
L 285.858946 200.64351 
L 282.81686 200.64351 
L 279.774775 200.64351 
L 276.732689 200.64351 
L 273.690603 200.64351 
L 270.648517 200.64351 
L 267.606432 200.64351 
L 264.564346 200.64351 
L 261.52226 200.64351 
L 258.480174 200.64351 
L 255.438089 200.64351 
L 252.396003 200.64351 
L 249.353917 200.64351 
L 246.311831 200.64351 
L 243.269746 200.64351 
L 243.165478 200.64351 
L 240.982604 197.601424 
L 240.22766 197.051931 
L 237.185574 196.150056 
L 234.143488 196.800989 
L 233.037405 197.601424 
L 231.101403 200.319919 
L 230.955961 200.64351 
L 228.059317 200.64351 
L 225.017231 200.64351 
L 221.975145 200.64351 
L 218.93306 200.64351 
L 215.890974 200.64351 
L 212.848888 200.64351 
L 209.806802 200.64351 
L 206.764717 200.64351 
L 203.722631 200.64351 
L 200.680545 200.64351 
L 197.638459 200.64351 
L 194.968221 200.64351 
L 194.596374 199.703171 
L 193.253057 197.601424 
L 191.554288 196.188605 
L 188.512202 195.7067 
L 185.711506 197.601424 
L 185.470116 197.93592 
L 184.58092 200.64351 
L 182.428031 200.64351 
L 179.385945 200.64351 
L 176.343859 200.64351 
L 173.301773 200.64351 
L 170.259688 200.64351 
L 167.217602 200.64351 
L 164.175516 200.64351 
L 161.13343 200.64351 
L 158.091345 200.64351 
L 155.049259 200.64351 
L 152.007173 200.64351 
L 151.0769 200.64351 
L 150.573979 197.601424 
L 149.576287 194.559338 
L 148.965087 193.292472 
L 148.038094 191.517253 
L 145.985211 188.475167 
L 145.923002 188.397668 
L 143.049288 185.433081 
L 142.880916 185.277979 
L 139.83883 183.283682 
L 137.208128 182.390996 
L 136.796744 182.259342 
L 136.796744 179.34891 
L 136.796744 176.306824 
L 136.796744 173.264738 
L 136.796744 170.222653 
L 136.796744 167.180567 
L 136.796744 165.9233 
z
M 325.406061 193.872279 
L 328.448147 194.122794 
L 328.911154 194.559338 
L 331.014197 197.601424 
L 331.490232 199.031605 
L 331.793261 200.64351 
L 331.490232 200.64351 
L 328.448147 200.64351 
L 325.406061 200.64351 
L 322.363975 200.64351 
L 319.321889 200.64351 
L 319.161334 200.64351 
L 319.321889 200.316064 
L 320.744312 197.601424 
L 322.363975 195.807406 
L 324.152083 194.559338 
z
" clip-path="url(#p0ab45876d8)" style="fill: #440f76"/>
    <path d="M 164.175516 18.118365 
L 167.217602 18.118365 
L 170.259688 18.118365 
L 173.301773 18.118365 
L 176.343859 18.118365 
L 176.550713 18.118365 
L 176.343859 18.854671 
L 175.916279 21.160451 
L 174.770269 24.202537 
L 173.301773 26.736745 
L 173.073471 27.244622 
L 171.223144 30.286708 
L 170.259688 31.528053 
L 169.05277 33.328794 
L 167.217602 35.565732 
L 166.605587 36.37088 
L 164.175516 39.096123 
L 163.899241 39.412965 
L 161.13343 42.233399 
L 160.911549 42.455051 
L 158.091345 45.072439 
L 157.607148 45.497137 
L 155.049259 47.681811 
L 153.951861 48.539223 
L 152.007173 50.097143 
L 149.911644 51.581308 
L 148.965087 52.309706 
L 145.923002 54.296185 
L 145.284341 54.623394 
L 142.880916 56.067376 
L 139.83883 57.333768 
L 138.282629 57.66548 
L 136.796744 58.067304 
L 136.796744 57.66548 
L 136.796744 54.623394 
L 136.796744 51.581308 
L 136.796744 48.539223 
L 136.796744 45.497137 
L 136.796744 44.19586 
L 139.83883 43.720329 
L 142.880916 42.772059 
L 143.571758 42.455051 
L 145.923002 41.350836 
L 148.965087 39.458456 
L 149.025748 39.412965 
L 152.007173 36.994487 
L 152.670254 36.37088 
L 155.049259 33.831595 
L 155.475215 33.328794 
L 157.647389 30.286708 
L 158.091345 29.507622 
L 159.317858 27.244622 
L 160.533496 24.202537 
L 161.13343 21.915897 
L 161.332817 21.160451 
L 161.734411 18.118365 
z
M 197.638459 18.118365 
L 200.680545 18.118365 
L 203.722631 18.118365 
L 206.764717 18.118365 
L 209.413007 18.118365 
L 207.727783 21.160451 
L 206.764717 22.035767 
L 203.722631 23.064173 
L 200.680545 22.630864 
L 197.932347 21.160451 
L 197.638459 20.842828 
L 195.940775 18.118365 
z
M 367.995261 18.118365 
L 371.037347 18.118365 
L 374.079433 18.118365 
L 377.121519 18.118365 
L 380.163604 18.118365 
L 380.163604 21.160451 
L 380.163604 24.202537 
L 380.163604 27.244622 
L 380.163604 30.286708 
L 380.163604 32.408975 
L 377.121519 31.675807 
L 374.287322 30.286708 
L 374.079433 30.16729 
L 371.037347 27.502613 
L 370.819468 27.244622 
L 368.833645 24.202537 
L 367.995261 22.280845 
L 367.603175 21.160451 
L 367.067081 18.118365 
z
M 137.208128 182.390996 
L 139.83883 183.283682 
L 142.880916 185.277979 
L 143.049288 185.433081 
L 145.923002 188.397668 
L 145.985211 188.475167 
L 148.038094 191.517253 
L 148.965087 193.292472 
L 149.576287 194.559338 
L 150.573979 197.601424 
L 151.0769 200.64351 
L 148.965087 200.64351 
L 145.923002 200.64351 
L 142.880916 200.64351 
L 139.83883 200.64351 
L 136.796744 200.64351 
L 136.796744 197.601424 
L 136.796744 194.559338 
L 136.796744 191.517253 
L 136.796744 188.475167 
L 136.796744 185.433081 
L 136.796744 182.390996 
L 136.796744 182.259342 
z
M 380.163604 181.660393 
L 380.163604 182.390996 
L 380.163604 185.433081 
L 380.163604 188.475167 
L 380.163604 191.517253 
L 380.163604 194.559338 
L 380.163604 197.601424 
L 380.163604 200.64351 
L 377.121519 200.64351 
L 374.079433 200.64351 
L 371.037347 200.64351 
L 367.995261 200.64351 
L 366.096654 200.64351 
L 366.535048 197.601424 
L 367.405116 194.559338 
L 367.995261 193.1551 
L 368.781928 191.517253 
L 370.667654 188.475167 
L 371.037347 187.97157 
L 373.375153 185.433081 
L 374.079433 184.744327 
L 377.121519 182.682347 
L 377.964362 182.390996 
z
M 188.512202 195.7067 
L 191.554288 196.188605 
L 193.253057 197.601424 
L 194.596374 199.703171 
L 194.968221 200.64351 
L 194.596374 200.64351 
L 191.554288 200.64351 
L 188.512202 200.64351 
L 185.470116 200.64351 
L 184.58092 200.64351 
L 185.470116 197.93592 
L 185.711506 197.601424 
z
M 234.143488 196.800989 
L 237.185574 196.150056 
L 240.22766 197.051931 
L 240.982604 197.601424 
L 243.165478 200.64351 
L 240.22766 200.64351 
L 237.185574 200.64351 
L 234.143488 200.64351 
L 231.101403 200.64351 
L 230.955961 200.64351 
L 231.101403 200.319919 
L 233.037405 197.601424 
z
" clip-path="url(#p0ab45876d8)" style="fill: #5d177f"/>
    <path d="M 152.007173 18.118365 
L 155.049259 18.118365 
L 158.091345 18.118365 
L 161.13343 18.118365 
L 161.734411 18.118365 
L 161.332817 21.160451 
L 161.13343 21.915897 
L 160.533496 24.202537 
L 159.317858 27.244622 
L 158.091345 29.507622 
L 157.647389 30.286708 
L 155.475215 33.328794 
L 155.049259 33.831595 
L 152.670254 36.37088 
L 152.007173 36.994487 
L 149.025748 39.412965 
L 148.965087 39.458456 
L 145.923002 41.350836 
L 143.571758 42.455051 
L 142.880916 42.772059 
L 139.83883 43.720329 
L 136.796744 44.19586 
L 136.796744 42.455051 
L 136.796744 39.412965 
L 136.796744 36.37088 
L 136.796744 33.328794 
L 136.796744 31.827619 
L 139.83883 31.124829 
L 141.656012 30.286708 
L 142.880916 29.603987 
L 145.710764 27.244622 
L 145.923002 27.011782 
L 147.885042 24.202537 
L 148.965087 21.867545 
L 149.237935 21.160451 
L 149.826954 18.118365 
z
" clip-path="url(#p0ab45876d8)" style="fill: #762181"/>
    <path d="M 139.83883 18.118365 
L 142.880916 18.118365 
L 145.923002 18.118365 
L 148.965087 18.118365 
L 149.826954 18.118365 
L 149.237935 21.160451 
L 148.965087 21.867545 
L 147.885042 24.202537 
L 145.923002 27.011782 
L 145.710764 27.244622 
L 142.880916 29.603987 
L 141.656012 30.286708 
L 139.83883 31.124829 
L 136.796744 31.827619 
L 136.796744 30.286708 
L 136.796744 27.244622 
L 136.796744 24.202537 
L 136.796744 21.160451 
L 136.796744 18.118365 
z
" clip-path="url(#p0ab45876d8)" style="fill: #902a81"/>
    <path clip-path="url(#p0ab45876d8)" style="fill: #aa337d"/>
    <path clip-path="url(#p0ab45876d8)" style="fill: #c43c75"/>
    <path clip-path="url(#p0ab45876d8)" style="fill: #dc4869"/>
    <path clip-path="url(#p0ab45876d8)" style="fill: #ef5d5e"/>
    <path clip-path="url(#p0ab45876d8)" style="fill: #f9795d"/>
    <path clip-path="url(#p0ab45876d8)" style="fill: #fd9869"/>
    <path clip-path="url(#p0ab45876d8)" style="fill: #feb67c"/>
    <path clip-path="url(#p0ab45876d8)" style="fill: #fed395"/>
    <path clip-path="url(#p0ab45876d8)" style="fill: #fcf0b2"/>
    <path clip-path="url(#p0ab45876d8)" style="fill: #fcfdbf"/>
   </g>
   <g id="patch_3">
    <path d="M 258.480174 18.118365 
L 319.321889 18.118365 
L 319.321889 30.286708 
L 258.480174 30.286708 
z
" clip-path="url(#p0ab45876d8)" style="fill: url(#h0b6a41b8ad); opacity: 0.65; stroke: #111827; stroke-width: 1.2; stroke-linejoin: miter"/>
   </g>
   <g id="PathCollection_1">
    <defs>
     <path id="m3d29151a3e" d="M 0 4.582576 
L 4.582576 0 
L 0 -4.582576 
L -4.582576 0 
z
" style="stroke: #111827; stroke-width: 0.7"/>
    </defs>
    <g clip-path="url(#p0ab45876d8)">
     <use xlink:href="#m3d29151a3e" x="258.480174" y="109.380938" style="fill: #34d399; stroke: #111827; stroke-width: 0.7"/>
    </g>
   </g>
   <g id="PathCollection_2">
    <defs>
     <path id="m8ed309f2eb" d="M 0 -5.361903 
L -1.203822 -1.656919 
L -5.099472 -1.656919 
L -1.947825 0.632887 
L -3.151647 4.33787 
L -0 2.048065 
L 3.151647 4.33787 
L 1.947825 0.632887 
L 5.099472 -1.656919 
L 1.203822 -1.656919 
z
" style="stroke: #ffffff; stroke-width: 0.8"/>
    </defs>
    <g clip-path="url(#p0ab45876d8)">
     <use xlink:href="#m8ed309f2eb" x="167.217602" y="48.539223" style="fill: #60a5fa; stroke: #ffffff; stroke-width: 0.8"/>
    </g>
   </g>
   <g id="matplotlib.axis_1">
    <g id="xtick_1">
     <g id="line2d_1">
      <defs>
       <path id="m5737a66eb7" d="M 0 0 
L 0 3.5 
" style="stroke: #000000; stroke-width: 0.8"/>
      </defs>
      <g>
       <use xlink:href="#m5737a66eb7" x="136.796744" y="200.64351" style="stroke: #000000; stroke-width: 0.8"/>
      </g>
     </g>
     <g id="text_1">
      <!-- 0 -->
      <g transform="translate(133.615494 215.241947) scale(0.1 -0.1)">
       <defs>
        <path id="DejaVuSans-30" d="M 2034 4250 
Q 1547 4250 1301 3770 
Q 1056 3291 1056 2328 
Q 1056 1369 1301 889 
Q 1547 409 2034 409 
Q 2525 409 2770 889 
Q 3016 1369 3016 2328 
Q 3016 3291 2770 3770 
Q 2525 4250 2034 4250 
z
M 2034 4750 
Q 2819 4750 3233 4129 
Q 3647 3509 3647 2328 
Q 3647 1150 3233 529 
Q 2819 -91 2034 -91 
Q 1250 -91 836 529 
Q 422 1150 422 2328 
Q 422 3509 836 4129 
Q 1250 4750 2034 4750 
z
" transform="scale(0.015625)"/>
       </defs>
       <use xlink:href="#DejaVuSans-30"/>
      </g>
     </g>
    </g>
    <g id="xtick_2">
     <g id="line2d_2">
      <g>
       <use xlink:href="#m5737a66eb7" x="197.638459" y="200.64351" style="stroke: #000000; stroke-width: 0.8"/>
      </g>
     </g>
     <g id="text_2">
      <!-- 100 -->
      <g transform="translate(188.094709 215.241947) scale(0.1 -0.1)">
       <defs>
        <path id="DejaVuSans-31" d="M 794 531 
L 1825 531 
L 1825 4091 
L 703 3866 
L 703 4441 
L 1819 4666 
L 2450 4666 
L 2450 531 
L 3481 531 
L 3481 0 
L 794 0 
L 794 531 
z
" transform="scale(0.015625)"/>
       </defs>
       <use xlink:href="#DejaVuSans-31"/>
       <use xlink:href="#DejaVuSans-30" x="63.623047"/>
       <use xlink:href="#DejaVuSans-30" x="127.246094"/>
      </g>
     </g>
    </g>
    <g id="xtick_3">
     <g id="line2d_3">
      <g>
       <use xlink:href="#m5737a66eb7" x="258.480174" y="200.64351" style="stroke: #000000; stroke-width: 0.8"/>
      </g>
     </g>
     <g id="text_3">
      <!-- 200 -->
      <g transform="translate(248.936424 215.241947) scale(0.1 -0.1)">
       <defs>
        <path id="DejaVuSans-32" d="M 1228 531 
L 3431 531 
L 3431 0 
L 469 0 
L 469 531 
Q 828 903 1448 1529 
Q 2069 2156 2228 2338 
Q 2531 2678 2651 2914 
Q 2772 3150 2772 3378 
Q 2772 3750 2511 3984 
Q 2250 4219 1831 4219 
Q 1534 4219 1204 4116 
Q 875 4013 500 3803 
L 500 4441 
Q 881 4594 1212 4672 
Q 1544 4750 1819 4750 
Q 2544 4750 2975 4387 
Q 3406 4025 3406 3419 
Q 3406 3131 3298 2873 
Q 3191 2616 2906 2266 
Q 2828 2175 2409 1742 
Q 1991 1309 1228 531 
z
" transform="scale(0.015625)"/>
       </defs>
       <use xlink:href="#DejaVuSans-32"/>
       <use xlink:href="#DejaVuSans-30" x="63.623047"/>
       <use xlink:href="#DejaVuSans-30" x="127.246094"/>
      </g>
     </g>
    </g>
    <g id="xtick_4">
     <g id="line2d_4">
      <g>
       <use xlink:href="#m5737a66eb7" x="319.321889" y="200.64351" style="stroke: #000000; stroke-width: 0.8"/>
      </g>
     </g>
     <g id="text_4">
      <!-- 300 -->
      <g transform="translate(309.778139 215.241947) scale(0.1 -0.1)">
       <defs>
        <path id="DejaVuSans-33" d="M 2597 2516 
Q 3050 2419 3304 2112 
Q 3559 1806 3559 1356 
Q 3559 666 3084 287 
Q 2609 -91 1734 -91 
Q 1441 -91 1130 -33 
Q 819 25 488 141 
L 488 750 
Q 750 597 1062 519 
Q 1375 441 1716 441 
Q 2309 441 2620 675 
Q 2931 909 2931 1356 
Q 2931 1769 2642 2001 
Q 2353 2234 1838 2234 
L 1294 2234 
L 1294 2753 
L 1863 2753 
Q 2328 2753 2575 2939 
Q 2822 3125 2822 3475 
Q 2822 3834 2567 4026 
Q 2313 4219 1838 4219 
Q 1578 4219 1281 4162 
Q 984 4106 628 3988 
L 628 4550 
Q 988 4650 1302 4700 
Q 1616 4750 1894 4750 
Q 2613 4750 3031 4423 
Q 3450 4097 3450 3541 
Q 3450 3153 3228 2886 
Q 3006 2619 2597 2516 
z
" transform="scale(0.015625)"/>
       </defs>
       <use xlink:href="#DejaVuSans-33"/>
       <use xlink:href="#DejaVuSans-30" x="63.623047"/>
       <use xlink:href="#DejaVuSans-30" x="127.246094"/>
      </g>
     </g>
    </g>
    <g id="xtick_5">
     <g id="line2d_5">
      <g>
       <use xlink:href="#m5737a66eb7" x="380.163604" y="200.64351" style="stroke: #000000; stroke-width: 0.8"/>
      </g>
     </g>
     <g id="text_5">
      <!-- 400 -->
      <g transform="translate(370.619854 215.241947) scale(0.1 -0.1)">
       <defs>
        <path id="DejaVuSans-34" d="M 2419 4116 
L 825 1625 
L 2419 1625 
L 2419 4116 
z
M 2253 4666 
L 3047 4666 
L 3047 1625 
L 3713 1625 
L 3713 1100 
L 3047 1100 
L 3047 0 
L 2419 0 
L 2419 1100 
L 313 1100 
L 313 1709 
L 2253 4666 
z
" transform="scale(0.015625)"/>
       </defs>
       <use xlink:href="#DejaVuSans-34"/>
       <use xlink:href="#DejaVuSans-30" x="63.623047"/>
       <use xlink:href="#DejaVuSans-30" x="127.246094"/>
      </g>
     </g>
    </g>
    <g id="text_6">
     <!-- x [mm] -->
     <g transform="translate(240.289549 228.920073) scale(0.1 -0.1)">
      <defs>
       <path id="DejaVuSans-78" d="M 3513 3500 
L 2247 1797 
L 3578 0 
L 2900 0 
L 1881 1375 
L 863 0 
L 184 0 
L 1544 1831 
L 300 3500 
L 978 3500 
L 1906 2253 
L 2834 3500 
L 3513 3500 
z
" transform="scale(0.015625)"/>
       <path id="DejaVuSans-20" transform="scale(0.015625)"/>
       <path id="DejaVuSans-5b" d="M 550 4863 
L 1875 4863 
L 1875 4416 
L 1125 4416 
L 1125 -397 
L 1875 -397 
L 1875 -844 
L 550 -844 
L 550 4863 
z
" transform="scale(0.015625)"/>
       <path id="DejaVuSans-6d" d="M 3328 2828 
Q 3544 3216 3844 3400 
Q 4144 3584 4550 3584 
Q 5097 3584 5394 3201 
Q 5691 2819 5691 2113 
L 5691 0 
L 5113 0 
L 5113 2094 
Q 5113 2597 4934 2840 
Q 4756 3084 4391 3084 
Q 3944 3084 3684 2787 
Q 3425 2491 3425 1978 
L 3425 0 
L 2847 0 
L 2847 2094 
Q 2847 2600 2669 2842 
Q 2491 3084 2119 3084 
Q 1678 3084 1418 2786 
Q 1159 2488 1159 1978 
L 1159 0 
L 581 0 
L 581 3500 
L 1159 3500 
L 1159 2956 
Q 1356 3278 1631 3431 
Q 1906 3584 2284 3584 
Q 2666 3584 2933 3390 
Q 3200 3197 3328 2828 
z
" transform="scale(0.015625)"/>
       <path id="DejaVuSans-5d" d="M 1947 4863 
L 1947 -844 
L 622 -844 
L 622 -397 
L 1369 -397 
L 1369 4416 
L 622 4416 
L 622 4863 
L 1947 4863 
z
" transform="scale(0.015625)"/>
      </defs>
      <use xlink:href="#DejaVuSans-78"/>
      <use xlink:href="#DejaVuSans-20" x="59.179688"/>
      <use xlink:href="#DejaVuSans-5b" x="90.966797"/>
      <use xlink:href="#DejaVuSans-6d" x="129.980469"/>
      <use xlink:href="#DejaVuSans-6d" x="227.392578"/>
      <use xlink:href="#DejaVuSans-5d" x="324.804688"/>
     </g>
    </g>
   </g>
   <g id="matplotlib.axis_2">
    <g id="ytick_1">
     <g id="line2d_6">
      <defs>
       <path id="me5750c45a2" d="M 0 0 
L -3.5 0 
" style="stroke: #000000; stroke-width: 0.8"/>
      </defs>
      <g>
       <use xlink:href="#me5750c45a2" x="136.796744" y="18.118365" style="stroke: #000000; stroke-width: 0.8"/>
      </g>
     </g>
     <g id="text_7">
      <!-- 0 -->
      <g transform="translate(123.434244 21.917584) scale(0.1 -0.1)">
       <use xlink:href="#DejaVuSans-30"/>
      </g>
     </g>
    </g>
    <g id="ytick_2">
     <g id="line2d_7">
      <g>
       <use xlink:href="#me5750c45a2" x="136.796744" y="78.96008" style="stroke: #000000; stroke-width: 0.8"/>
      </g>
     </g>
     <g id="text_8">
      <!-- 100 -->
      <g transform="translate(110.709244 82.759299) scale(0.1 -0.1)">
       <use xlink:href="#DejaVuSans-31"/>
       <use xlink:href="#DejaVuSans-30" x="63.623047"/>
       <use xlink:href="#DejaVuSans-30" x="127.246094"/>
      </g>
     </g>
    </g>
    <g id="ytick_3">
     <g id="line2d_8">
      <g>
       <use xlink:href="#me5750c45a2" x="136.796744" y="139.801795" style="stroke: #000000; stroke-width: 0.8"/>
      </g>
     </g>
     <g id="text_9">
      <!-- 200 -->
      <g transform="translate(110.709244 143.601014) scale(0.1 -0.1)">
       <use xlink:href="#DejaVuSans-32"/>
       <use xlink:href="#DejaVuSans-30" x="63.623047"/>
       <use xlink:href="#DejaVuSans-30" x="127.246094"/>
      </g>
     </g>
    </g>
    <g id="ytick_4">
     <g id="line2d_9">
      <g>
       <use xlink:href="#me5750c45a2" x="136.796744" y="200.64351" style="stroke: #000000; stroke-width: 0.8"/>
      </g>
     </g>
     <g id="text_10">
      <!-- 300 -->
      <g transform="translate(110.709244 204.442729) scale(0.1 -0.1)">
       <use xlink:href="#DejaVuSans-33"/>
       <use xlink:href="#DejaVuSans-30" x="63.623047"/>
       <use xlink:href="#DejaVuSans-30" x="127.246094"/>
      </g>
     </g>
    </g>
    <g id="text_11">
     <!-- y [mm] -->
     <g transform="translate(104.629557 127.571562) rotate(-90) scale(0.1 -0.1)">
      <defs>
       <path id="DejaVuSans-79" d="M 2059 -325 
Q 1816 -950 1584 -1140 
Q 1353 -1331 966 -1331 
L 506 -1331 
L 506 -850 
L 844 -850 
Q 1081 -850 1212 -737 
Q 1344 -625 1503 -206 
L 1606 56 
L 191 3500 
L 800 3500 
L 1894 763 
L 2988 3500 
L 3597 3500 
L 2059 -325 
z
" transform="scale(0.015625)"/>
      </defs>
      <use xlink:href="#DejaVuSans-79"/>
      <use xlink:href="#DejaVuSans-20" x="59.179688"/>
      <use xlink:href="#DejaVuSans-5b" x="90.966797"/>
      <use xlink:href="#DejaVuSans-6d" x="129.980469"/>
      <use xlink:href="#DejaVuSans-6d" x="227.392578"/>
      <use xlink:href="#DejaVuSans-5d" x="324.804688"/>
     </g>
    </g>
   </g>
   <g id="patch_4">
    <path d="M 136.796744 200.64351 
L 136.796744 18.118365 
" style="fill: none; stroke: #000000; stroke-width: 0.8; stroke-linejoin: miter; stroke-linecap: square"/>
   </g>
   <g id="patch_5">
    <path d="M 380.163604 200.64351 
L 380.163604 18.118365 
" style="fill: none; stroke: #000000; stroke-width: 0.8; stroke-linejoin: miter; stroke-linecap: square"/>
   </g>
   <g id="patch_6">
    <path d="M 136.796744 200.64351 
L 380.163604 200.64351 
" style="fill: none; stroke: #000000; stroke-width: 0.8; stroke-linejoin: miter; stroke-linecap: square"/>
   </g>
   <g id="patch_7">
    <path d="M 136.796744 18.118365 
L 380.163604 18.118365 
" style="fill: none; stroke: #000000; stroke-width: 0.8; stroke-linejoin: miter; stroke-linecap: square"/>
   </g>
   <g id="text_12">
    <!-- Area 01 hit (50, 50) mm   peak=0.41 -->
    <g transform="translate(147.377049 12.118365) scale(0.12 -0.12)">
     <defs>
      <path id="DejaVuSans-41" d="M 2188 4044 
L 1331 1722 
L 3047 1722 
L 2188 4044 
z
M 1831 4666 
L 2547 4666 
L 4325 0 
L 3669 0 
L 3244 1197 
L 1141 1197 
L 716 0 
L 50 0 
L 1831 4666 
z
" transform="scale(0.015625)"/>
      <path id="DejaVuSans-72" d="M 2631 2963 
Q 2534 3019 2420 3045 
Q 2306 3072 2169 3072 
Q 1681 3072 1420 2755 
Q 1159 2438 1159 1844 
L 1159 0 
L 581 0 
L 581 3500 
L 1159 3500 
L 1159 2956 
Q 1341 3275 1631 3429 
Q 1922 3584 2338 3584 
Q 2397 3584 2469 3576 
Q 2541 3569 2628 3553 
L 2631 2963 
z
" transform="scale(0.015625)"/>
      <path id="DejaVuSans-65" d="M 3597 1894 
L 3597 1613 
L 953 1613 
Q 991 1019 1311 708 
Q 1631 397 2203 397 
Q 2534 397 2845 478 
Q 3156 559 3463 722 
L 3463 178 
Q 3153 47 2828 -22 
Q 2503 -91 2169 -91 
Q 1331 -91 842 396 
Q 353 884 353 1716 
Q 353 2575 817 3079 
Q 1281 3584 2069 3584 
Q 2775 3584 3186 3129 
Q 3597 2675 3597 1894 
z
M 3022 2063 
Q 3016 2534 2758 2815 
Q 2500 3097 2075 3097 
Q 1594 3097 1305 2825 
Q 1016 2553 972 2059 
L 3022 2063 
z
" transform="scale(0.015625)"/>
      <path id="DejaVuSans-61" d="M 2194 1759 
Q 1497 1759 1228 1600 
Q 959 1441 959 1056 
Q 959 750 1161 570 
Q 1363 391 1709 391 
Q 2188 391 2477 730 
Q 2766 1069 2766 1631 
L 2766 1759 
L 2194 1759 
z
M 3341 1997 
L 3341 0 
L 2766 0 
L 2766 531 
Q 2569 213 2275 61 
Q 1981 -91 1556 -91 
Q 1019 -91 701 211 
Q 384 513 384 1019 
Q 384 1609 779 1909 
Q 1175 2209 1959 2209 
L 2766 2209 
L 2766 2266 
Q 2766 2663 2505 2880 
Q 2244 3097 1772 3097 
Q 1472 3097 1187 3025 
Q 903 2953 641 2809 
L 641 3341 
Q 956 3463 1253 3523 
Q 1550 3584 1831 3584 
Q 2591 3584 2966 3190 
Q 3341 2797 3341 1997 
z
" transform="scale(0.015625)"/>
      <path id="DejaVuSans-68" d="M 3513 2113 
L 3513 0 
L 2938 0 
L 2938 2094 
Q 2938 2591 2744 2837 
Q 2550 3084 2163 3084 
Q 1697 3084 1428 2787 
Q 1159 2491 1159 1978 
L 1159 0 
L 581 0 
L 581 4863 
L 1159 4863 
L 1159 2956 
Q 1366 3272 1645 3428 
Q 1925 3584 2291 3584 
Q 2894 3584 3203 3211 
Q 3513 2838 3513 2113 
z
" transform="scale(0.015625)"/>
      <path id="DejaVuSans-69" d="M 603 3500 
L 1178 3500 
L 1178 0 
L 603 0 
L 603 3500 
z
M 603 4863 
L 1178 4863 
L 1178 4134 
L 603 4134 
L 603 4863 
z
" transform="scale(0.015625)"/>
      <path id="DejaVuSans-74" d="M 1172 4494 
L 1172 3500 
L 2356 3500 
L 2356 3053 
L 1172 3053 
L 1172 1153 
Q 1172 725 1289 603 
Q 1406 481 1766 481 
L 2356 481 
L 2356 0 
L 1766 0 
Q 1100 0 847 248 
Q 594 497 594 1153 
L 594 3053 
L 172 3053 
L 172 3500 
L 594 3500 
L 594 4494 
L 1172 4494 
z
" transform="scale(0.015625)"/>
      <path id="DejaVuSans-28" d="M 1984 4856 
Q 1566 4138 1362 3434 
Q 1159 2731 1159 2009 
Q 1159 1288 1364 580 
Q 1569 -128 1984 -844 
L 1484 -844 
Q 1016 -109 783 600 
Q 550 1309 550 2009 
Q 550 2706 781 3412 
Q 1013 4119 1484 4856 
L 1984 4856 
z
" transform="scale(0.015625)"/>
      <path id="DejaVuSans-35" d="M 691 4666 
L 3169 4666 
L 3169 4134 
L 1269 4134 
L 1269 2991 
Q 1406 3038 1543 3061 
Q 1681 3084 1819 3084 
Q 2600 3084 3056 2656 
Q 3513 2228 3513 1497 
Q 3513 744 3044 326 
Q 2575 -91 1722 -91 
Q 1428 -91 1123 -41 
Q 819 9 494 109 
L 494 744 
Q 775 591 1075 516 
Q 1375 441 1709 441 
Q 2250 441 2565 725 
Q 2881 1009 2881 1497 
Q 2881 1984 2565 2268 
Q 2250 2553 1709 2553 
Q 1456 2553 1204 2497 
Q 953 2441 691 2322 
L 691 4666 
z
" transform="scale(0.015625)"/>
      <path id="DejaVuSans-2c" d="M 750 794 
L 1409 794 
L 1409 256 
L 897 -744 
L 494 -744 
L 750 256 
L 750 794 
z
" transform="scale(0.015625)"/>
      <path id="DejaVuSans-29" d="M 513 4856 
L 1013 4856 
Q 1481 4119 1714 3412 
Q 1947 2706 1947 2009 
Q 1947 1309 1714 600 
Q 1481 -109 1013 -844 
L 513 -844 
Q 928 -128 1133 580 
Q 1338 1288 1338 2009 
Q 1338 2731 1133 3434 
Q 928 4138 513 4856 
z
" transform="scale(0.015625)"/>
      <path id="DejaVuSans-70" d="M 1159 525 
L 1159 -1331 
L 581 -1331 
L 581 3500 
L 1159 3500 
L 1159 2969 
Q 1341 3281 1617 3432 
Q 1894 3584 2278 3584 
Q 2916 3584 3314 3078 
Q 3713 2572 3713 1747 
Q 3713 922 3314 415 
Q 2916 -91 2278 -91 
Q 1894 -91 1617 61 
Q 1341 213 1159 525 
z
M 3116 1747 
Q 3116 2381 2855 2742 
Q 2594 3103 2138 3103 
Q 1681 3103 1420 2742 
Q 1159 2381 1159 1747 
Q 1159 1113 1420 752 
Q 1681 391 2138 391 
Q 2594 391 2855 752 
Q 3116 1113 3116 1747 
z
" transform="scale(0.015625)"/>
      <path id="DejaVuSans-6b" d="M 581 4863 
L 1159 4863 
L 1159 1991 
L 2875 3500 
L 3609 3500 
L 1753 1863 
L 3688 0 
L 2938 0 
L 1159 1709 
L 1159 0 
L 581 0 
L 581 4863 
z
" transform="scale(0.015625)"/>
      <path id="DejaVuSans-3d" d="M 678 2906 
L 4684 2906 
L 4684 2381 
L 678 2381 
L 678 2906 
z
M 678 1631 
L 4684 1631 
L 4684 1100 
L 678 1100 
L 678 1631 
z
" transform="scale(0.015625)"/>
      <path id="DejaVuSans-2e" d="M 684 794 
L 1344 794 
L 1344 0 
L 684 0 
L 684 794 
z
" transform="scale(0.015625)"/>
     </defs>
     <use xlink:href="#DejaVuSans-41"/>
     <use xlink:href="#DejaVuSans-72" x="68.408203"/>
     <use xlink:href="#DejaVuSans-65" x="107.271484"/>
     <use xlink:href="#DejaVuSans-61" x="168.794922"/>
     <use xlink:href="#DejaVuSans-20" x="230.074219"/>
     <use xlink:href="#DejaVuSans-30" x="261.861328"/>
     <use xlink:href="#DejaVuSans-31" x="325.484375"/>
     <use xlink:href="#DejaVuSans-20" x="389.107422"/>
     <use xlink:href="#DejaVuSans-68" x="420.894531"/>
     <use xlink:href="#DejaVuSans-69" x="484.273438"/>
     <use xlink:href="#DejaVuSans-74" x="512.056641"/>
     <use xlink:href="#DejaVuSans-20" x="551.265625"/>
     <use xlink:href="#DejaVuSans-28" x="583.052734"/>
     <use xlink:href="#DejaVuSans-35" x="622.066406"/>
     <use xlink:href="#DejaVuSans-30" x="685.689453"/>
     <use xlink:href="#DejaVuSans-2c" x="749.3125"/>
     <use xlink:href="#DejaVuSans-20" x="781.099609"/>
     <use xlink:href="#DejaVuSans-35" x="812.886719"/>
     <use xlink:href="#DejaVuSans-30" x="876.509766"/>
     <use xlink:href="#DejaVuSans-29" x="940.132812"/>
     <use xlink:href="#DejaVuSans-20" x="979.146484"/>
     <use xlink:href="#DejaVuSans-6d" x="1010.933594"/>
     <use xlink:href="#DejaVuSans-6d" x="1108.345703"/>
     <use xlink:href="#DejaVuSans-20" x="1205.757812"/>
     <use xlink:href="#DejaVuSans-20" x="1237.544922"/>
     <use xlink:href="#DejaVuSans-20" x="1269.332031"/>
     <use xlink:href="#DejaVuSans-70" x="1301.119141"/>
     <use xlink:href="#DejaVuSans-65" x="1364.595703"/>
     <use xlink:href="#DejaVuSans-61" x="1426.119141"/>
     <use xlink:href="#DejaVuSans-6b" x="1487.398438"/>
     <use xlink:href="#DejaVuSans-3d" x="1545.308594"/>
     <use xlink:href="#DejaVuSans-30" x="1629.097656"/>
     <use xlink:href="#DejaVuSans-2e" x="1692.720703"/>
     <use xlink:href="#DejaVuSans-34" x="1724.507812"/>
     <use xlink:href="#DejaVuSans-31" x="1788.130859"/>
    </g>
   </g>
   <g id="legend_1">
    <g id="patch_8">
     <path d="M 322.452354 196.64351 
L 374.563604 196.64351 
Q 376.163604 196.64351 376.163604 195.04351 
L 376.163604 172.35851 
Q 376.163604 170.75851 374.563604 170.75851 
L 322.452354 170.75851 
Q 320.852354 170.75851 320.852354 172.35851 
L 320.852354 195.04351 
Q 320.852354 196.64351 322.452354 196.64351 
z
" style="fill: #ffffff; opacity: 0.9; stroke: #cccccc; stroke-linejoin: miter"/>
    </g>
    <g id="PathCollection_3">
     <g>
      <use xlink:href="#m3d29151a3e" x="332.052354" y="177.93726" style="fill: #34d399; stroke: #111827; stroke-width: 0.7"/>
     </g>
    </g>
    <g id="text_13">
     <!-- sensor -->
     <g transform="translate(346.452354 180.03726) scale(0.08 -0.08)">
      <defs>
       <path id="DejaVuSans-73" d="M 2834 3397 
L 2834 2853 
Q 2591 2978 2328 3040 
Q 2066 3103 1784 3103 
Q 1356 3103 1142 2972 
Q 928 2841 928 2578 
Q 928 2378 1081 2264 
Q 1234 2150 1697 2047 
L 1894 2003 
Q 2506 1872 2764 1633 
Q 3022 1394 3022 966 
Q 3022 478 2636 193 
Q 2250 -91 1575 -91 
Q 1294 -91 989 -36 
Q 684 19 347 128 
L 347 722 
Q 666 556 975 473 
Q 1284 391 1588 391 
Q 1994 391 2212 530 
Q 2431 669 2431 922 
Q 2431 1156 2273 1281 
Q 2116 1406 1581 1522 
L 1381 1569 
Q 847 1681 609 1914 
Q 372 2147 372 2553 
Q 372 3047 722 3315 
Q 1072 3584 1716 3584 
Q 2034 3584 2315 3537 
Q 2597 3491 2834 3397 
z
" transform="scale(0.015625)"/>
       <path id="DejaVuSans-6e" d="M 3513 2113 
L 3513 0 
L 2938 0 
L 2938 2094 
Q 2938 2591 2744 2837 
Q 2550 3084 2163 3084 
Q 1697 3084 1428 2787 
Q 1159 2491 1159 1978 
L 1159 0 
L 581 0 
L 581 3500 
L 1159 3500 
L 1159 2956 
Q 1366 3272 1645 3428 
Q 1925 3584 2291 3584 
Q 2894 3584 3203 3211 
Q 3513 2838 3513 2113 
z
" transform="scale(0.015625)"/>
       <path id="DejaVuSans-6f" d="M 1959 3097 
Q 1497 3097 1228 2736 
Q 959 2375 959 1747 
Q 959 1119 1226 758 
Q 1494 397 1959 397 
Q 2419 397 2687 759 
Q 2956 1122 2956 1747 
Q 2956 2369 2687 2733 
Q 2419 3097 1959 3097 
z
M 1959 3584 
Q 2709 3584 3137 3096 
Q 3566 2609 3566 1747 
Q 3566 888 3137 398 
Q 2709 -91 1959 -91 
Q 1206 -91 779 398 
Q 353 888 353 1747 
Q 353 2609 779 3096 
Q 1206 3584 1959 3584 
z
" transform="scale(0.015625)"/>
      </defs>
      <use xlink:href="#DejaVuSans-73"/>
      <use xlink:href="#DejaVuSans-65" x="52.099609"/>
      <use xlink:href="#DejaVuSans-6e" x="113.623047"/>
      <use xlink:href="#DejaVuSans-73" x="177.001953"/>
      <use xlink:href="#DejaVuSans-6f" x="229.101562"/>
      <use xlink:href="#DejaVuSans-72" x="290.283203"/>
     </g>
    </g>
    <g id="PathCollection_4">
     <g>
      <use xlink:href="#m8ed309f2eb" x="332.052354" y="189.67976" style="fill: #60a5fa; stroke: #ffffff; stroke-width: 0.8"/>
     </g>
    </g>
    <g id="text_14">
     <!-- hit -->
     <g transform="translate(346.452354 191.77976) scale(0.08 -0.08)">
      <use xlink:href="#DejaVuSans-68"/>
      <use xlink:href="#DejaVuSans-69" x="63.378906"/>
      <use xlink:href="#DejaVuSans-74" x="91.162109"/>
     </g>
    </g>
   </g>
  </g>
  <g id="axes_2">
   <g id="patch_9">
    <path d="M 401.022255 180.565744 
L 408.140736 180.565744 
L 408.140736 44.975636 
L 401.022255 44.975636 
z
" style="fill: #ffffff"/>
   </g>
   <g id="patch_10">
    <path d="M 401.022255 44.975636 
L 404.581496 38.196131 
L 408.140736 44.975636 
" style="fill: #fcfdbf"/>
   </g>
   <g id="QuadMesh_1">
    <path d="M 401.022255 180.565744 
L 408.140736 180.565744 
L 408.140736 172.091362 
L 401.022255 172.091362 
L 401.022255 180.565744 
" clip-path="url(#pba18023531)" style="fill: #030312"/>
    <path d="M 401.022255 172.091362 
L 408.140736 172.091362 
L 408.140736 163.616981 
L 401.022255 163.616981 
L 401.022255 172.091362 
" clip-path="url(#pba18023531)" style="fill: #130d34"/>
    <path d="M 401.022255 163.616981 
L 408.140736 163.616981 
L 408.140736 155.142599 
L 401.022255 155.142599 
L 401.022255 163.616981 
" clip-path="url(#pba18023531)" style="fill: #29115a"/>
    <path d="M 401.022255 155.142599 
L 408.140736 155.142599 
L 408.140736 146.668217 
L 401.022255 146.668217 
L 401.022255 155.142599 
" clip-path="url(#pba18023531)" style="fill: #440f76"/>
    <path d="M 401.022255 146.668217 
L 408.140736 146.668217 
L 408.140736 138.193835 
L 401.022255 138.193835 
L 401.022255 146.668217 
" clip-path="url(#pba18023531)" style="fill: #5d177f"/>
    <path d="M 401.022255 138.193835 
L 408.140736 138.193835 
L 408.140736 129.719454 
L 401.022255 129.719454 
L 401.022255 138.193835 
" clip-path="url(#pba18023531)" style="fill: #762181"/>
    <path d="M 401.022255 129.719454 
L 408.140736 129.719454 
L 408.140736 121.245072 
L 401.022255 121.245072 
L 401.022255 129.719454 
" clip-path="url(#pba18023531)" style="fill: #902a81"/>
    <path d="M 401.022255 121.245072 
L 408.140736 121.245072 
L 408.140736 112.77069 
L 401.022255 112.77069 
L 401.022255 121.245072 
" clip-path="url(#pba18023531)" style="fill: #aa337d"/>
    <path d="M 401.022255 112.77069 
L 408.140736 112.77069 
L 408.140736 104.296308 
L 401.022255 104.296308 
L 401.022255 112.77069 
" clip-path="url(#pba18023531)" style="fill: #c43c75"/>
    <path d="M 401.022255 104.296308 
L 408.140736 104.296308 
L 408.140736 95.821927 
L 401.022255 95.821927 
L 401.022255 104.296308 
" clip-path="url(#pba18023531)" style="fill: #dc4869"/>
    <path d="M 401.022255 95.821927 
L 408.140736 95.821927 
L 408.140736 87.347545 
L 401.022255 87.347545 
L 401.022255 95.821927 
" clip-path="url(#pba18023531)" style="fill: #ef5d5e"/>
    <path d="M 401.022255 87.347545 
L 408.140736 87.347545 
L 408.140736 78.873163 
L 401.022255 78.873163 
L 401.022255 87.347545 
" clip-path="url(#pba18023531)" style="fill: #f9795d"/>
    <path d="M 401.022255 78.873163 
L 408.140736 78.873163 
L 408.140736 70.398782 
L 401.022255 70.398782 
L 401.022255 78.873163 
" clip-path="url(#pba18023531)" style="fill: #fd9869"/>
    <path d="M 401.022255 70.398782 
L 408.140736 70.398782 
L 408.140736 61.9244 
L 401.022255 61.9244 
L 401.022255 70.398782 
" clip-path="url(#pba18023531)" style="fill: #feb67c"/>
    <path d="M 401.022255 61.9244 
L 408.140736 61.9244 
L 408.140736 53.450018 
L 401.022255 53.450018 
L 401.022255 61.9244 
" clip-path="url(#pba18023531)" style="fill: #fed395"/>
    <path d="M 401.022255 53.450018 
L 408.140736 53.450018 
L 408.140736 44.975636 
L 401.022255 44.975636 
L 401.022255 53.450018 
" clip-path="url(#pba18023531)" style="fill: #fcf0b2"/>
   </g>
   <g id="matplotlib.axis_3"/>
   <g id="matplotlib.axis_4">
    <g id="ytick_5">
     <g id="line2d_10">
      <defs>
       <path id="m9c13aac045" d="M 0 0 
L 3.5 0 
" style="stroke: #000000; stroke-width: 0.8"/>
      </defs>
      <g>
       <use xlink:href="#m9c13aac045" x="408.140736" y="180.565744" style="stroke: #000000; stroke-width: 0.8"/>
      </g>
     </g>
     <g id="text_15">
      <!-- 0.000 -->
      <g transform="translate(415.140736 184.364963) scale(0.1 -0.1)">
       <use xlink:href="#DejaVuSans-30"/>
       <use xlink:href="#DejaVuSans-2e" x="63.623047"/>
       <use xlink:href="#DejaVuSans-30" x="95.410156"/>
       <use xlink:href="#DejaVuSans-30" x="159.033203"/>
       <use xlink:href="#DejaVuSans-30" x="222.65625"/>
      </g>
     </g>
    </g>
    <g id="ytick_6">
     <g id="line2d_11">
      <g>
       <use xlink:href="#m9c13aac045" x="408.140736" y="163.616981" style="stroke: #000000; stroke-width: 0.8"/>
      </g>
     </g>
     <g id="text_16">
      <!-- 0.125 -->
      <g transform="translate(415.140736 167.416199) scale(0.1 -0.1)">
       <use xlink:href="#DejaVuSans-30"/>
       <use xlink:href="#DejaVuSans-2e" x="63.623047"/>
       <use xlink:href="#DejaVuSans-31" x="95.410156"/>
       <use xlink:href="#DejaVuSans-32" x="159.033203"/>
       <use xlink:href="#DejaVuSans-35" x="222.65625"/>
      </g>
     </g>
    </g>
    <g id="ytick_7">
     <g id="line2d_12">
      <g>
       <use xlink:href="#m9c13aac045" x="408.140736" y="146.668217" style="stroke: #000000; stroke-width: 0.8"/>
      </g>
     </g>
     <g id="text_17">
      <!-- 0.250 -->
      <g transform="translate(415.140736 150.467436) scale(0.1 -0.1)">
       <use xlink:href="#DejaVuSans-30"/>
       <use xlink:href="#DejaVuSans-2e" x="63.623047"/>
       <use xlink:href="#DejaVuSans-32" x="95.410156"/>
       <use xlink:href="#DejaVuSans-35" x="159.033203"/>
       <use xlink:href="#DejaVuSans-30" x="222.65625"/>
      </g>
     </g>
    </g>
    <g id="ytick_8">
     <g id="line2d_13">
      <g>
       <use xlink:href="#m9c13aac045" x="408.140736" y="129.719454" style="stroke: #000000; stroke-width: 0.8"/>
      </g>
     </g>
     <g id="text_18">
      <!-- 0.375 -->
      <g transform="translate(415.140736 133.518672) scale(0.1 -0.1)">
       <defs>
        <path id="DejaVuSans-37" d="M 525 4666 
L 3525 4666 
L 3525 4397 
L 1831 0 
L 1172 0 
L 2766 4134 
L 525 4134 
L 525 4666 
z
" transform="scale(0.015625)"/>
       </defs>
       <use xlink:href="#DejaVuSans-30"/>
       <use xlink:href="#DejaVuSans-2e" x="63.623047"/>
       <use xlink:href="#DejaVuSans-33" x="95.410156"/>
       <use xlink:href="#DejaVuSans-37" x="159.033203"/>
       <use xlink:href="#DejaVuSans-35" x="222.65625"/>
      </g>
     </g>
    </g>
    <g id="ytick_9">
     <g id="line2d_14">
      <g>
       <use xlink:href="#m9c13aac045" x="408.140736" y="112.77069" style="stroke: #000000; stroke-width: 0.8"/>
      </g>
     </g>
     <g id="text_19">
      <!-- 0.500 -->
      <g transform="translate(415.140736 116.569909) scale(0.1 -0.1)">
       <use xlink:href="#DejaVuSans-30"/>
       <use xlink:href="#DejaVuSans-2e" x="63.623047"/>
       <use xlink:href="#DejaVuSans-35" x="95.410156"/>
       <use xlink:href="#DejaVuSans-30" x="159.033203"/>
       <use xlink:href="#DejaVuSans-30" x="222.65625"/>
      </g>
     </g>
    </g>
    <g id="ytick_10">
     <g id="line2d_15">
      <g>
       <use xlink:href="#m9c13aac045" x="408.140736" y="95.821927" style="stroke: #000000; stroke-width: 0.8"/>
      </g>
     </g>
     <g id="text_20">
      <!-- 0.625 -->
      <g transform="translate(415.140736 99.621145) scale(0.1 -0.1)">
       <defs>
        <path id="DejaVuSans-36" d="M 2113 2584 
Q 1688 2584 1439 2293 
Q 1191 2003 1191 1497 
Q 1191 994 1439 701 
Q 1688 409 2113 409 
Q 2538 409 2786 701 
Q 3034 994 3034 1497 
Q 3034 2003 2786 2293 
Q 2538 2584 2113 2584 
z
M 3366 4563 
L 3366 3988 
Q 3128 4100 2886 4159 
Q 2644 4219 2406 4219 
Q 1781 4219 1451 3797 
Q 1122 3375 1075 2522 
Q 1259 2794 1537 2939 
Q 1816 3084 2150 3084 
Q 2853 3084 3261 2657 
Q 3669 2231 3669 1497 
Q 3669 778 3244 343 
Q 2819 -91 2113 -91 
Q 1303 -91 875 529 
Q 447 1150 447 2328 
Q 447 3434 972 4092 
Q 1497 4750 2381 4750 
Q 2619 4750 2861 4703 
Q 3103 4656 3366 4563 
z
" transform="scale(0.015625)"/>
       </defs>
       <use xlink:href="#DejaVuSans-30"/>
       <use xlink:href="#DejaVuSans-2e" x="63.623047"/>
       <use xlink:href="#DejaVuSans-36" x="95.410156"/>
       <use xlink:href="#DejaVuSans-32" x="159.033203"/>
       <use xlink:href="#DejaVuSans-35" x="222.65625"/>
      </g>
     </g>
    </g>
    <g id="ytick_11">
     <g id="line2d_16">
      <g>
       <use xlink:href="#m9c13aac045" x="408.140736" y="78.873163" style="stroke: #000000; stroke-width: 0.8"/>
      </g>
     </g>
     <g id="text_21">
      <!-- 0.750 -->
      <g transform="translate(415.140736 82.672382) scale(0.1 -0.1)">
       <use xlink:href="#DejaVuSans-30"/>
       <use xlink:href="#DejaVuSans-2e" x="63.623047"/>
       <use xlink:href="#DejaVuSans-37" x="95.410156"/>
       <use xlink:href="#DejaVuSans-35" x="159.033203"/>
       <use xlink:href="#DejaVuSans-30" x="222.65625"/>
      </g>
     </g>
    </g>
    <g id="ytick_12">
     <g id="line2d_17">
      <g>
       <use xlink:href="#m9c13aac045" x="408.140736" y="61.9244" style="stroke: #000000; stroke-width: 0.8"/>
      </g>
     </g>
     <g id="text_22">
      <!-- 0.875 -->
      <g transform="translate(415.140736 65.723619) scale(0.1 -0.1)">
       <defs>
        <path id="DejaVuSans-38" d="M 2034 2216 
Q 1584 2216 1326 1975 
Q 1069 1734 1069 1313 
Q 1069 891 1326 650 
Q 1584 409 2034 409 
Q 2484 409 2743 651 
Q 3003 894 3003 1313 
Q 3003 1734 2745 1975 
Q 2488 2216 2034 2216 
z
M 1403 2484 
Q 997 2584 770 2862 
Q 544 3141 544 3541 
Q 544 4100 942 4425 
Q 1341 4750 2034 4750 
Q 2731 4750 3128 4425 
Q 3525 4100 3525 3541 
Q 3525 3141 3298 2862 
Q 3072 2584 2669 2484 
Q 3125 2378 3379 2068 
Q 3634 1759 3634 1313 
Q 3634 634 3220 271 
Q 2806 -91 2034 -91 
Q 1263 -91 848 271 
Q 434 634 434 1313 
Q 434 1759 690 2068 
Q 947 2378 1403 2484 
z
M 1172 3481 
Q 1172 3119 1398 2916 
Q 1625 2713 2034 2713 
Q 2441 2713 2670 2916 
Q 2900 3119 2900 3481 
Q 2900 3844 2670 4047 
Q 2441 4250 2034 4250 
Q 1625 4250 1398 4047 
Q 1172 3844 1172 3481 
z
" transform="scale(0.015625)"/>
       </defs>
       <use xlink:href="#DejaVuSans-30"/>
       <use xlink:href="#DejaVuSans-2e" x="63.623047"/>
       <use xlink:href="#DejaVuSans-38" x="95.410156"/>
       <use xlink:href="#DejaVuSans-37" x="159.033203"/>
       <use xlink:href="#DejaVuSans-35" x="222.65625"/>
      </g>
     </g>
    </g>
    <g id="ytick_13">
     <g id="line2d_18">
      <g>
       <use xlink:href="#m9c13aac045" x="408.140736" y="44.975636" style="stroke: #000000; stroke-width: 0.8"/>
      </g>
     </g>
     <g id="text_23">
      <!-- 1.000 -->
      <g transform="translate(415.140736 48.774855) scale(0.1 -0.1)">
       <use xlink:href="#DejaVuSans-31"/>
       <use xlink:href="#DejaVuSans-2e" x="63.623047"/>
       <use xlink:href="#DejaVuSans-30" x="95.410156"/>
       <use xlink:href="#DejaVuSans-30" x="159.033203"/>
       <use xlink:href="#DejaVuSans-30" x="222.65625"/>
      </g>
     </g>
    </g>
    <g id="text_24">
     <!-- normalized RMS acceleration -->
     <g transform="translate(455.367298 185.496471) rotate(-90) scale(0.1 -0.1)">
      <defs>
       <path id="DejaVuSans-6c" d="M 603 4863 
L 1178 4863 
L 1178 0 
L 603 0 
L 603 4863 
z
" transform="scale(0.015625)"/>
       <path id="DejaVuSans-7a" d="M 353 3500 
L 3084 3500 
L 3084 2975 
L 922 459 
L 3084 459 
L 3084 0 
L 275 0 
L 275 525 
L 2438 3041 
L 353 3041 
L 353 3500 
z
" transform="scale(0.015625)"/>
       <path id="DejaVuSans-64" d="M 2906 2969 
L 2906 4863 
L 3481 4863 
L 3481 0 
L 2906 0 
L 2906 525 
Q 2725 213 2448 61 
Q 2172 -91 1784 -91 
Q 1150 -91 751 415 
Q 353 922 353 1747 
Q 353 2572 751 3078 
Q 1150 3584 1784 3584 
Q 2172 3584 2448 3432 
Q 2725 3281 2906 2969 
z
M 947 1747 
Q 947 1113 1208 752 
Q 1469 391 1925 391 
Q 2381 391 2643 752 
Q 2906 1113 2906 1747 
Q 2906 2381 2643 2742 
Q 2381 3103 1925 3103 
Q 1469 3103 1208 2742 
Q 947 2381 947 1747 
z
" transform="scale(0.015625)"/>
       <path id="DejaVuSans-52" d="M 2841 2188 
Q 3044 2119 3236 1894 
Q 3428 1669 3622 1275 
L 4263 0 
L 3584 0 
L 2988 1197 
Q 2756 1666 2539 1819 
Q 2322 1972 1947 1972 
L 1259 1972 
L 1259 0 
L 628 0 
L 628 4666 
L 2053 4666 
Q 2853 4666 3247 4331 
Q 3641 3997 3641 3322 
Q 3641 2881 3436 2590 
Q 3231 2300 2841 2188 
z
M 1259 4147 
L 1259 2491 
L 2053 2491 
Q 2509 2491 2742 2702 
Q 2975 2913 2975 3322 
Q 2975 3731 2742 3939 
Q 2509 4147 2053 4147 
L 1259 4147 
z
" transform="scale(0.015625)"/>
       <path id="DejaVuSans-4d" d="M 628 4666 
L 1569 4666 
L 2759 1491 
L 3956 4666 
L 4897 4666 
L 4897 0 
L 4281 0 
L 4281 4097 
L 3078 897 
L 2444 897 
L 1241 4097 
L 1241 0 
L 628 0 
L 628 4666 
z
" transform="scale(0.015625)"/>
       <path id="DejaVuSans-53" d="M 3425 4513 
L 3425 3897 
Q 3066 4069 2747 4153 
Q 2428 4238 2131 4238 
Q 1616 4238 1336 4038 
Q 1056 3838 1056 3469 
Q 1056 3159 1242 3001 
Q 1428 2844 1947 2747 
L 2328 2669 
Q 3034 2534 3370 2195 
Q 3706 1856 3706 1288 
Q 3706 609 3251 259 
Q 2797 -91 1919 -91 
Q 1588 -91 1214 -16 
Q 841 59 441 206 
L 441 856 
Q 825 641 1194 531 
Q 1563 422 1919 422 
Q 2459 422 2753 634 
Q 3047 847 3047 1241 
Q 3047 1584 2836 1778 
Q 2625 1972 2144 2069 
L 1759 2144 
Q 1053 2284 737 2584 
Q 422 2884 422 3419 
Q 422 4038 858 4394 
Q 1294 4750 2059 4750 
Q 2388 4750 2728 4690 
Q 3069 4631 3425 4513 
z
" transform="scale(0.015625)"/>
       <path id="DejaVuSans-63" d="M 3122 3366 
L 3122 2828 
Q 2878 2963 2633 3030 
Q 2388 3097 2138 3097 
Q 1578 3097 1268 2742 
Q 959 2388 959 1747 
Q 959 1106 1268 751 
Q 1578 397 2138 397 
Q 2388 397 2633 464 
Q 2878 531 3122 666 
L 3122 134 
Q 2881 22 2623 -34 
Q 2366 -91 2075 -91 
Q 1284 -91 818 406 
Q 353 903 353 1747 
Q 353 2603 823 3093 
Q 1294 3584 2113 3584 
Q 2378 3584 2631 3529 
Q 2884 3475 3122 3366 
z
" transform="scale(0.015625)"/>
      </defs>
      <use xlink:href="#DejaVuSans-6e"/>
      <use xlink:href="#DejaVuSans-6f" x="63.378906"/>
      <use xlink:href="#DejaVuSans-72" x="124.560547"/>
      <use xlink:href="#DejaVuSans-6d" x="163.923828"/>
      <use xlink:href="#DejaVuSans-61" x="261.335938"/>
      <use xlink:href="#DejaVuSans-6c" x="322.615234"/>
      <use xlink:href="#DejaVuSans-69" x="350.398438"/>
      <use xlink:href="#DejaVuSans-7a" x="378.181641"/>
      <use xlink:href="#DejaVuSans-65" x="430.671875"/>
      <use xlink:href="#DejaVuSans-64" x="492.195312"/>
      <use xlink:href="#DejaVuSans-20" x="555.671875"/>
      <use xlink:href="#DejaVuSans-52" x="587.458984"/>
      <use xlink:href="#DejaVuSans-4d" x="656.941406"/>
      <use xlink:href="#DejaVuSans-53" x="743.220703"/>
      <use xlink:href="#DejaVuSans-20" x="806.697266"/>
      <use xlink:href="#DejaVuSans-61" x="838.484375"/>
      <use xlink:href="#DejaVuSans-63" x="899.763672"/>
      <use xlink:href="#DejaVuSans-63" x="954.744141"/>
      <use xlink:href="#DejaVuSans-65" x="1009.724609"/>
      <use xlink:href="#DejaVuSans-6c" x="1071.248047"/>
      <use xlink:href="#DejaVuSans-65" x="1099.03125"/>
      <use xlink:href="#DejaVuSans-72" x="1160.554688"/>
      <use xlink:href="#DejaVuSans-61" x="1201.667969"/>
      <use xlink:href="#DejaVuSans-74" x="1262.947266"/>
      <use xlink:href="#DejaVuSans-69" x="1302.15625"/>
      <use xlink:href="#DejaVuSans-6f" x="1329.939453"/>
      <use xlink:href="#DejaVuSans-6e" x="1391.121094"/>
     </g>
    </g>
   </g>
   <g id="LineCollection_1"/>
   <g id="patch_11">
    <path d="M 401.022255 180.565744 
L 404.581496 180.565744 
L 408.140736 180.565744 
L 408.140736 44.975636 
L 404.581496 38.196131 
L 401.022255 44.975636 
L 401.022255 180.565744 
z
" style="fill: none; stroke: #000000; stroke-width: 0.8; stroke-linejoin: miter; stroke-linecap: square"/>
   </g>
  </g>
 </g>
 <defs>
  <clipPath id="p0ab45876d8">
   <rect x="136.796744" y="18.118365" width="243.36686" height="182.525145"/>
  </clipPath>
  <clipPath id="pba18023531">
   <rect x="401.022255" y="44.975636" width="7.118481" height="135.590108"/>
  </clipPath>
 </defs>
 <defs>
  <pattern id="h0b6a41b8ad" patternUnits="userSpaceOnUse" x="0" y="0" width="72" height="72">
   <rect x="0" y="0" width="73" height="73" fill="#eeeeee"/>
   <path d="M -36 36 
L 36 -36 
M -33 39 
L 39 -33 
M -30 42 
L 42 -30 
M -27 45 
L 45 -27 
M -24 48 
L 48 -24 
M -21 51 
L 51 -21 
M -18 54 
L 54 -18 
M -15 57 
L 57 -15 
M -12 60 
L 60 -12 
M -9 63 
L 63 -9 
M -6 66 
L 66 -6 
M -3 69 
L 69 -3 
M 0 72 
L 72 0 
M 3 75 
L 75 3 
M 6 78 
L 78 6 
M 9 81 
L 81 9 
M 12 84 
L 84 12 
M 15 87 
L 87 15 
M 18 90 
L 90 18 
M 21 93 
L 93 21 
M 24 96 
L 96 24 
M 27 99 
L 99 27 
M 30 102 
L 102 30 
M 33 105 
L 105 33 
M 36 108 
L 108 36 
" style="fill: #111827; stroke: #111827; stroke-width: 1.0; stroke-linecap: butt; stroke-linejoin: miter; stroke-opacity: 0.65"/>
  </pattern>
 </defs>
</svg>
